<?xml version="1.0" encoding="UTF-8"?>
<svg version="1.1" xmlns="http://www.w3.org/2000/svg" width="512" height="512">
<path d="M0 0 C1.3958431 -0.00461769 2.79168133 -0.0109764 4.18750954 -0.01890898 C7.99528633 -0.03550658 11.80265877 -0.02740003 15.61043644 -0.0149641 C19.72776501 -0.0058764 23.84502631 -0.0199017 27.96234131 -0.03088379 C36.01714488 -0.04863406 44.07179904 -0.04484464 52.12660837 -0.03323323 C58.67517729 -0.0241854 65.22370445 -0.02298073 71.77227783 -0.02732849 C73.17238647 -0.02824789 73.17238647 -0.02824789 74.60078013 -0.02918586 C76.49720622 -0.03046481 78.3936323 -0.03176167 80.29005837 -0.03307623 C98.05664433 -0.04447179 115.82314762 -0.03138439 133.58972001 -0.00987476 C148.82141072 0.00799529 164.05297946 0.00489089 179.28466797 -0.0135498 C196.98936405 -0.0349746 214.69398775 -0.04337325 232.39869499 -0.03110075 C234.2879931 -0.02982661 236.17729122 -0.02856912 238.06658936 -0.02732849 C238.99606593 -0.02671139 239.9255425 -0.02609429 240.88318503 -0.02545848 C247.42094073 -0.02201042 253.95865036 -0.02782221 260.49639893 -0.0372467 C268.46797544 -0.04848596 276.43939448 -0.04538621 284.41095304 -0.02412373 C288.47516511 -0.01363917 292.53911499 -0.00944692 296.60332489 -0.02272034 C300.32916259 -0.03470427 304.0544969 -0.02798403 307.78028941 -0.00681013 C309.75496347 -0.00027757 311.72967291 -0.01322632 313.70430946 -0.02703905 C325.71953106 0.07805954 335.14451836 3.13112514 343.91943359 11.50793457 C354.17194914 22.24769838 355.51431467 33.72380282 355.42736816 48.01818848 C355.43198335 49.67801776 355.4383404 51.33784296 355.44627714 52.99765968 C355.4629088 57.5351152 355.45475228 62.07223234 355.44233227 66.60968876 C355.43325877 71.5122966 355.44726289 76.41484744 355.45825195 81.31744385 C355.47601723 90.91230164 355.47220605 100.50703411 355.46060139 110.10189676 C355.45155951 117.90141737 355.45034634 125.7009029 355.45469666 133.50042725 C355.45530959 134.61145612 355.45592252 135.722485 355.45655403 136.86718142 C355.45783296 139.12437551 355.45912981 141.38156959 355.46044439 143.63876367 C355.47184436 164.79319237 355.45874562 185.94755168 355.43724293 207.101969 C355.41937249 225.24448706 355.42247676 243.38690274 355.44091797 261.52941895 C355.46233496 282.60932538 355.47074577 303.68917104 355.45846891 324.76908684 C355.45719475 327.01787185 355.45593726 329.26665687 355.45469666 331.51544189 C355.453771 333.17501134 355.453771 333.17501134 355.45282665 334.86810744 C355.44937624 342.65620678 355.45519543 350.44426749 355.46461487 358.23236084 C355.47584542 367.72639657 355.47277252 377.22030004 355.45149189 386.71432066 C355.44099577 391.55622096 355.43683517 396.39790094 355.4500885 401.2397995 C355.46204796 405.67617065 355.45539149 410.11211821 355.43417829 414.54845119 C355.42972725 416.1492454 355.43194465 417.75007574 355.44168144 419.35084653 C355.51752317 432.86079008 353.48995361 443.48257796 343.91943359 453.50793457 C331.28080822 465.57316295 317.45395806 465.08990728 300.97827148 465.0255127 C298.64818892 465.03093816 296.31810979 465.0380632 293.98803711 465.04675293 C287.68481577 465.06493139 281.38185736 465.05794312 275.07863164 465.04523659 C269.14776297 465.0361185 263.21692636 465.04308802 257.28605681 465.04894537 C244.83273414 465.06032642 232.37952966 465.04727319 219.92622637 465.0257439 C209.24218118 465.00784574 198.5583097 465.01100407 187.87426758 465.02941895 C175.45255741 465.05081894 163.03095029 465.05925886 150.60922426 465.04696989 C144.03863027 465.04072888 137.46815599 465.03991691 130.89756966 465.05311584 C124.72751784 465.06464598 118.55779536 465.05670033 112.38777924 465.03353882 C110.12058752 465.02823819 107.8533682 465.02978849 105.58618736 465.03858948 C102.49836991 465.04947384 99.41161689 465.03586735 96.3238678 465.01586914 C94.9693677 465.02925347 94.9693677 465.02925347 93.58750397 465.04290819 C87.53383885 464.96652951 87.53383885 464.96652951 84.36485958 462.60118866 C82.8019682 460.33782214 82.37688327 459.23115513 82.41943359 456.50793457 C82.40912109 455.84793457 82.39880859 455.18793457 82.38818359 454.50793457 C83.20032678 451.45045435 84.38281821 450.41645208 86.91943359 448.50793457 C89.93996017 447.90591967 92.92423843 447.97017333 95.99565125 448.00241089 C96.92376879 447.99632077 97.85188634 447.99023065 98.80812865 447.98395598 C101.92580549 447.96830935 105.04271921 447.98116341 108.16040039 447.99377441 C110.39266952 447.98831569 112.6249349 447.98107551 114.85719299 447.97218323 C119.66883901 447.95682267 124.48027171 447.95405398 129.29193687 447.96094894 C136.90213253 447.97171765 144.51210464 447.95437318 152.12226868 447.93313599 C162.79449753 447.90628923 173.46666006 447.8919485 184.13891602 447.88879395 C185.15477207 447.88848796 185.15477207 447.88848796 186.19115046 447.8881758 C187.20823401 447.88787075 187.20823401 447.88787075 188.24586469 447.88755953 C197.84661488 447.88464303 207.44735179 447.87784686 217.0480957 447.86633301 C217.72299117 447.86552771 218.39788664 447.86472242 219.09323349 447.86389272 C230.36077195 447.85012013 241.62828705 447.82830189 252.8958047 447.80246317 C260.45840059 447.78597438 268.02090054 447.7805469 275.58351266 447.78405356 C280.29406032 447.78449123 285.00457191 447.7769164 289.71510887 447.76737785 C291.89634556 447.76469951 294.0775896 447.76543922 296.25882339 447.76988792 C299.24207328 447.77555048 302.22506295 447.76895828 305.20829773 447.75949097 C306.06648989 447.76415418 306.92468205 447.76881739 307.80888003 447.77362192 C316.70729295 447.71868516 324.79002751 446.68008571 331.32568359 440.08996582 C337.21796639 433.42689021 338.04281717 426.43961262 338.04806805 417.79771709 C338.0506976 416.81887381 338.0506976 416.81887381 338.05338028 415.82025591 C338.05802742 413.63643073 338.05557811 411.45267252 338.05314636 409.2688446 C338.05501498 407.68615662 338.05731589 406.10346909 338.06001168 404.52078229 C338.06612978 400.1735043 338.06599608 395.82624553 338.06481731 391.47896421 C338.06461331 386.78968915 338.07013202 382.10042026 338.07487488 377.41114807 C338.083182 368.22472575 338.08592975 359.03830985 338.08648726 349.85188409 C338.08696238 342.38499753 338.08901694 334.91811308 338.09218788 327.45122719 C338.10099456 306.28265507 338.10560723 285.11408801 338.10485741 263.94551405 C338.10481745 262.80426467 338.1047775 261.6630153 338.10473633 260.48718262 C338.10469545 259.34454035 338.10465457 258.20189808 338.10461245 257.02463029 C338.10420595 238.50448479 338.11377627 219.98435962 338.12787469 201.46422001 C338.14223562 182.44926649 338.14914504 163.43432288 338.14828092 144.4193638 C338.14794885 133.74334976 338.15070007 123.06735704 338.16145897 112.39134789 C338.17056022 103.30194511 338.17274229 94.21257331 338.16594955 85.12316795 C338.16268248 80.48615446 338.16263443 75.8492004 338.1713028 71.21219254 C338.17916038 66.96520399 338.17774393 62.71832209 338.16901866 58.47133616 C338.16748205 56.93704474 338.16930593 55.40274538 338.17487874 53.8684633 C338.26030604 38.8102637 338.26030604 38.8102637 331.91943359 25.50793457 C331.91943359 24.84793457 331.91943359 24.18793457 331.91943359 23.50793457 C331.38318359 23.23980957 330.84693359 22.97168457 330.29443359 22.69543457 C328.54393763 21.82018659 326.81775902 20.89589314 325.10693359 19.94543457 C317.83835608 16.66744863 309.81363385 17.364279 301.98977661 17.3742218 C300.68340897 17.37195625 299.37704134 17.36969069 298.0310868 17.36735648 C294.41576779 17.36125354 290.80047194 17.36137029 287.18514895 17.36255085 C283.28185595 17.36275524 279.37857032 17.35723254 275.47528076 17.35249329 C267.83239941 17.34419471 260.18952577 17.34143881 252.54664029 17.34088091 C246.33359155 17.34040542 240.12054535 17.33834906 233.90749741 17.33518028 C216.28643503 17.32637629 198.66537875 17.32176057 181.04431416 17.32251076 C180.09479791 17.32255071 179.14528166 17.32259067 178.16699219 17.32263184 C176.74097605 17.32269316 176.74097605 17.32269316 175.28615151 17.32275572 C159.87646706 17.32316224 144.46680703 17.31359055 129.05712964 17.29949347 C113.22877913 17.28512778 97.40044054 17.27822337 81.57208335 17.27908725 C72.68795927 17.27941912 63.8038608 17.27667605 54.91974258 17.26590919 C47.35649049 17.25680172 39.79327563 17.25463103 32.23002042 17.26141862 C28.37272318 17.26468241 24.51549737 17.26474555 20.65820694 17.25606537 C16.47310325 17.24674448 12.28816479 17.25297997 8.10305786 17.26069641 C6.2818883 17.25298107 6.2818883 17.25298107 4.42392743 17.24510986 C-5.00909035 17.28355791 -12.3797565 17.87319561 -20.08056641 23.50793457 C-20.74056641 23.50793457 -21.40056641 23.50793457 -22.08056641 23.50793457 C-26.22822586 31.48420276 -28.20373516 38.22268882 -28.20920086 47.21815205 C-28.2109539 47.87071424 -28.21270693 48.52327643 -28.21451309 49.19561324 C-28.21916023 51.37943841 -28.21671092 53.56319663 -28.21427917 55.74702454 C-28.21614779 57.32971253 -28.2184487 58.91240005 -28.2211445 60.49508685 C-28.22726259 64.84236485 -28.22712889 69.18962361 -28.22595012 73.53690493 C-28.22574612 78.22618 -28.23126484 82.91544888 -28.23600769 87.60472107 C-28.24431482 96.79114339 -28.24706256 105.97755929 -28.24762007 115.16398505 C-28.24809519 122.63087161 -28.25014976 130.09775606 -28.25332069 137.56464195 C-28.26212737 158.73321408 -28.26674004 179.90178113 -28.26599022 201.07035509 C-28.26593029 202.78222915 -28.26593029 202.78222915 -28.26586914 204.52868652 C-28.26582826 205.67132879 -28.26578738 206.81397106 -28.26574526 207.99123885 C-28.26533877 226.51138435 -28.27490908 245.03150952 -28.28900751 263.55164913 C-28.30336843 282.56660265 -28.31027785 301.58154626 -28.30941373 320.59650534 C-28.30908167 331.27251938 -28.31183288 341.9485121 -28.32259178 352.62452126 C-28.33169303 361.71392403 -28.33387511 370.80329583 -28.32708236 379.89270119 C-28.32381529 384.52971469 -28.32376725 389.16666874 -28.33243561 393.80367661 C-28.34029319 398.05066515 -28.33887674 402.29754705 -28.33015148 406.54453298 C-28.32861486 408.07882441 -28.33043874 409.61312376 -28.33601155 411.14740584 C-28.42143885 426.20560544 -28.42143885 426.20560544 -22.08056641 439.50793457 C-22.08056641 440.16793457 -22.08056641 440.82793457 -22.08056641 441.50793457 C-14.0434882 445.68721524 -7.28060146 447.62312466 1.77929688 447.64978027 C2.43699066 447.6532547 3.09468445 447.65672913 3.77230835 447.66030884 C5.18982233 447.6676187 6.60734741 447.67298926 8.02487564 447.6765995 C10.26967738 447.68381199 12.51426645 447.69951025 14.75900269 447.71794128 C21.13748408 447.77021152 27.51583983 447.81843232 33.89453125 447.8338623 C37.80500307 447.84393893 41.71492479 447.87324157 45.62517929 447.91518211 C47.1122713 447.92748866 48.59944093 447.93261398 50.08658218 447.93038368 C52.16444102 447.92803236 54.2407148 447.9501752 56.31835938 447.97790527 C57.4993924 447.98377151 58.68042542 447.98963776 59.89724731 447.99568176 C63.52064208 448.60983786 64.69715091 449.6394721 66.91943359 452.50793457 C67.45068359 454.50793457 67.45068359 454.50793457 67.41943359 456.50793457 C67.42974609 457.16793457 67.44005859 457.82793457 67.45068359 458.50793457 C66.65762741 461.49355785 65.34068188 462.60435369 62.91943359 464.50793457 C60.32813085 464.90316793 58.16026909 465.05596373 55.5715332 465.0255127 C54.83759338 465.03252197 54.10365356 465.03953125 53.34747314 465.04675293 C50.92185545 465.06434948 48.49740691 465.05269672 46.07177734 465.03918457 C44.37748492 465.04188105 42.683194 465.04576478 40.98890686 465.05078125 C37.43377991 465.05668021 33.87905482 465.04810832 30.32397461 465.02941895 C25.79374972 465.00675062 21.26447915 465.01967206 16.73429012 465.0437088 C13.23123679 465.05826065 9.7284042 465.05351609 6.2253437 465.04319763 C4.55699104 465.04054981 2.8886176 465.0437308 1.22028923 465.05311584 C-12.61184919 465.11379772 -23.71066693 463.40736601 -34.08056641 453.50793457 C-44.33308195 442.76817077 -45.67544748 431.29206632 -45.58850098 416.99768066 C-45.59311616 415.33785138 -45.59947321 413.67802618 -45.60740995 412.01820946 C-45.62404161 407.48075394 -45.61588509 402.9436368 -45.60346508 398.40618038 C-45.59439158 393.50357254 -45.60839571 388.6010217 -45.61938477 383.69842529 C-45.63715004 374.1035675 -45.63333886 364.50883503 -45.6217342 354.91397238 C-45.61269232 347.11445177 -45.61147915 339.31496624 -45.61582947 331.51544189 C-45.61674887 329.84889858 -45.61674887 329.84889858 -45.61768684 328.14868772 C-45.61896577 325.89149363 -45.62026262 323.63429955 -45.6215772 321.37710547 C-45.63297717 300.22267677 -45.61987843 279.06831746 -45.59837574 257.91390014 C-45.5805053 239.77138208 -45.58360957 221.62896641 -45.60205078 203.4864502 C-45.62346778 182.40654376 -45.63187859 161.3266981 -45.61960173 140.2467823 C-45.61832756 137.99799729 -45.61707008 135.74921227 -45.61582947 133.50042725 C-45.61521237 132.39404762 -45.61459526 131.28766799 -45.61395946 130.1477617 C-45.61050906 122.35966237 -45.61632824 114.57160166 -45.62574768 106.7835083 C-45.63697823 97.28947258 -45.63390534 87.7955691 -45.6126247 78.30154848 C-45.60212858 73.45964818 -45.59796798 68.6179682 -45.61122131 63.77606964 C-45.62318077 59.33969849 -45.6165243 54.90375093 -45.59531111 50.46741796 C-45.59086007 48.86662374 -45.59307747 47.2657934 -45.60281426 45.66502261 C-45.67865598 32.15507906 -43.65108642 21.53329118 -34.08056641 11.50793457 C-24.06751614 1.94916258 -13.50028556 -0.09443548 0 0 Z " fill="#000000" transform="translate(101.08056640625,23.4920654296875)"/>
<path d="M0 0 C1.19012192 -0.00852997 2.38024384 -0.01705994 3.60643005 -0.02584839 C5.55232025 -0.02448883 5.55232025 -0.02448883 7.53752136 -0.02310181 C8.92427939 -0.02908944 10.31103409 -0.03589553 11.69778442 -0.04345703 C15.45825403 -0.06110158 19.21863257 -0.06581179 22.97913957 -0.0670886 C25.3309074 -0.06851177 27.68265219 -0.07278453 30.03441429 -0.07808304 C38.24575135 -0.09657903 46.45702354 -0.1047543 54.66838074 -0.10317993 C62.31138488 -0.10197902 69.9541064 -0.12307241 77.59703904 -0.15466726 C84.16792461 -0.18085823 90.73871803 -0.19154603 97.30965537 -0.19026911 C101.23015673 -0.18976025 105.15040692 -0.1954008 109.07085609 -0.21662521 C112.76049191 -0.23605513 116.44963821 -0.23610013 120.13929176 -0.22159195 C122.12967436 -0.21851929 124.12005725 -0.23514747 126.11036682 -0.25247192 C134.33505102 -0.19490663 139.94346912 0.65860019 146.30387878 6.23226929 C146.84270691 6.88324585 147.38153503 7.53422241 147.93669128 8.20492554 C148.49098816 8.85332397 149.04528503 9.50172241 149.61637878 10.16976929 C154.09581225 16.67100111 153.73632857 23.6388347 153.06169128 31.26742554 C151.38083546 37.92701887 146.59790806 42.45290001 141.06169128 46.26742554 C137.2845336 48.06180492 134.29034108 48.52131986 130.12338257 48.53485107 C128.93326065 48.54338104 127.74313873 48.55191101 126.51695251 48.56069946 C125.21969238 48.55979309 123.92243225 48.55888672 122.58586121 48.55795288 C121.19910318 48.56394051 119.81234848 48.5707466 118.42559814 48.57830811 C114.66512854 48.59595265 110.90475 48.60066286 107.144243 48.60193968 C104.79247517 48.60336285 102.44073038 48.60763561 100.08896828 48.61293411 C91.87763122 48.6314301 83.66635903 48.63960537 75.45500183 48.63803101 C67.81199769 48.63683009 60.16927617 48.65792348 52.52634352 48.68951833 C45.95545796 48.71570931 39.38466454 48.72639711 32.8137272 48.72512019 C28.89322584 48.72461133 24.97297565 48.73025187 21.05252647 48.75147629 C17.36289065 48.77090621 13.67374436 48.7709512 9.98409081 48.75644302 C7.99370821 48.75337036 6.00332532 48.76999854 4.01301575 48.787323 C-4.21166845 48.72975771 -9.82008655 47.87625088 -16.18049622 42.30258179 C-16.71932434 41.65160522 -17.25815247 41.00062866 -17.81330872 40.32992554 C-18.36760559 39.6815271 -18.92190247 39.03312866 -19.49299622 38.36508179 C-23.97242969 31.86384997 -23.612946 24.89601637 -22.93830872 17.26742554 C-21.25745289 10.6078322 -16.4745255 6.08195107 -10.93830872 2.26742554 C-7.16115103 0.47304615 -4.16695851 0.01353122 0 0 Z M-4.93830872 19.26742554 C-6.35872692 22.10826195 -6.25283144 24.12219831 -5.93830872 27.26742554 C-3.70624441 30.11523173 -2.38837873 31.1174022 1.06169128 32.26742554 C2.78622208 32.36381516 4.51424139 32.40236271 6.24145508 32.40786743 C7.85015221 32.41643265 7.85015221 32.41643265 9.49134827 32.4251709 C10.6680307 32.42628876 11.84471313 32.42740662 13.05705261 32.42855835 C14.91593864 32.43600571 14.91593864 32.43600571 16.81237793 32.44360352 C20.21333688 32.45571377 23.61423433 32.46317077 27.01520753 32.46761417 C29.14080397 32.47054651 31.26639503 32.47465164 33.39198875 32.47911835 C40.04483287 32.49279129 46.69766467 32.50245878 53.35052186 32.50632024 C61.0258481 32.51079983 68.70099615 32.52834382 76.37626821 32.55732083 C82.31183352 32.57895057 88.24734876 32.58902521 94.18295306 32.59036136 C97.72668127 32.59140852 101.27024194 32.59729717 104.8139286 32.61518097 C108.7687261 32.63475129 112.72330162 32.6303675 116.67814636 32.62387085 C117.8487561 32.63308563 119.01936584 32.64230042 120.22544861 32.65179443 C128.06615926 32.62295105 128.06615926 32.62295105 135.06169128 29.26742554 C136.48210949 26.42658912 136.37621401 24.41265276 136.06169128 21.26742554 C133.82962697 18.41961935 132.5117613 17.41744888 129.06169128 16.26742554 C127.33716049 16.17103592 125.60914118 16.13248837 123.88192749 16.12698364 C122.80946274 16.1212735 121.73699799 16.11556335 120.6320343 16.10968018 C119.45535187 16.10856232 118.27866943 16.10744446 117.06632996 16.10629272 C115.8270726 16.10132782 114.58781525 16.09636292 113.31100464 16.09124756 C109.91004569 16.0791373 106.50914824 16.0716803 103.10817504 16.0672369 C100.9825786 16.06430456 98.85698754 16.06019944 96.73139381 16.05573273 C90.0785497 16.04205979 83.4257179 16.03239229 76.77286071 16.02853084 C69.09753447 16.02405125 61.42238642 16.00650725 53.74711436 15.97753024 C47.81154904 15.95590051 41.87603381 15.94582586 35.94042951 15.94448972 C32.39670129 15.94344255 28.85314063 15.9375539 25.30945396 15.9196701 C21.35465647 15.90009978 17.40008095 15.90448357 13.44523621 15.91098022 C12.27462646 15.90176544 11.10401672 15.89255066 9.89793396 15.88305664 C2.05722331 15.91190002 2.05722331 15.91190002 -4.93830872 19.26742554 Z " fill="#000000" transform="translate(238.9383087158203,375.7325744628906)"/>
<path d="M0 0 C1.19012192 -0.00852997 2.38024384 -0.01705994 3.60643005 -0.02584839 C5.55232025 -0.02448883 5.55232025 -0.02448883 7.53752136 -0.02310181 C8.92427939 -0.02908944 10.31103409 -0.03589553 11.69778442 -0.04345703 C15.45825403 -0.06110158 19.21863257 -0.06581179 22.97913957 -0.0670886 C25.3309074 -0.06851177 27.68265219 -0.07278453 30.03441429 -0.07808304 C38.24575135 -0.09657903 46.45702354 -0.1047543 54.66838074 -0.10317993 C62.31138488 -0.10197902 69.9541064 -0.12307241 77.59703904 -0.15466726 C84.16792461 -0.18085823 90.73871803 -0.19154603 97.30965537 -0.19026911 C101.23015673 -0.18976025 105.15040692 -0.1954008 109.07085609 -0.21662521 C112.76049191 -0.23605513 116.44963821 -0.23610013 120.13929176 -0.22159195 C122.12967436 -0.21851929 124.12005725 -0.23514747 126.11036682 -0.25247192 C134.33505102 -0.19490663 139.94346912 0.65860019 146.30387878 6.23226929 C146.84270691 6.88324585 147.38153503 7.53422241 147.93669128 8.20492554 C148.49098816 8.85332397 149.04528503 9.50172241 149.61637878 10.16976929 C154.09581225 16.67100111 153.73632857 23.6388347 153.06169128 31.26742554 C151.38083546 37.92701887 146.59790806 42.45290001 141.06169128 46.26742554 C137.2845336 48.06180492 134.29034108 48.52131986 130.12338257 48.53485107 C128.93326065 48.54338104 127.74313873 48.55191101 126.51695251 48.56069946 C125.21969238 48.55979309 123.92243225 48.55888672 122.58586121 48.55795288 C121.19910318 48.56394051 119.81234848 48.5707466 118.42559814 48.57830811 C114.66512854 48.59595265 110.90475 48.60066286 107.144243 48.60193968 C104.79247517 48.60336285 102.44073038 48.60763561 100.08896828 48.61293411 C91.87763122 48.6314301 83.66635903 48.63960537 75.45500183 48.63803101 C67.81199769 48.63683009 60.16927617 48.65792348 52.52634352 48.68951833 C45.95545796 48.71570931 39.38466454 48.72639711 32.8137272 48.72512019 C28.89322584 48.72461133 24.97297565 48.73025187 21.05252647 48.75147629 C17.36289065 48.77090621 13.67374436 48.7709512 9.98409081 48.75644302 C7.99370821 48.75337036 6.00332532 48.76999854 4.01301575 48.787323 C-4.21166845 48.72975771 -9.82008655 47.87625088 -16.18049622 42.30258179 C-16.71932434 41.65160522 -17.25815247 41.00062866 -17.81330872 40.32992554 C-18.36760559 39.6815271 -18.92190247 39.03312866 -19.49299622 38.36508179 C-23.97242969 31.86384997 -23.612946 24.89601637 -22.93830872 17.26742554 C-21.25745289 10.6078322 -16.4745255 6.08195107 -10.93830872 2.26742554 C-7.16115103 0.47304615 -4.16695851 0.01353122 0 0 Z M-4.93830872 19.26742554 C-6.35872692 22.10826195 -6.25283144 24.12219831 -5.93830872 27.26742554 C-3.70624441 30.11523173 -2.38837873 31.1174022 1.06169128 32.26742554 C2.78622208 32.36381516 4.51424139 32.40236271 6.24145508 32.40786743 C7.85015221 32.41643265 7.85015221 32.41643265 9.49134827 32.4251709 C10.6680307 32.42628876 11.84471313 32.42740662 13.05705261 32.42855835 C14.91593864 32.43600571 14.91593864 32.43600571 16.81237793 32.44360352 C20.21333688 32.45571377 23.61423433 32.46317077 27.01520753 32.46761417 C29.14080397 32.47054651 31.26639503 32.47465164 33.39198875 32.47911835 C40.04483287 32.49279129 46.69766467 32.50245878 53.35052186 32.50632024 C61.0258481 32.51079983 68.70099615 32.52834382 76.37626821 32.55732083 C82.31183352 32.57895057 88.24734876 32.58902521 94.18295306 32.59036136 C97.72668127 32.59140852 101.27024194 32.59729717 104.8139286 32.61518097 C108.7687261 32.63475129 112.72330162 32.6303675 116.67814636 32.62387085 C117.8487561 32.63308563 119.01936584 32.64230042 120.22544861 32.65179443 C128.06615926 32.62295105 128.06615926 32.62295105 135.06169128 29.26742554 C136.48210949 26.42658912 136.37621401 24.41265276 136.06169128 21.26742554 C133.82962697 18.41961935 132.5117613 17.41744888 129.06169128 16.26742554 C127.33716049 16.17103592 125.60914118 16.13248837 123.88192749 16.12698364 C122.80946274 16.1212735 121.73699799 16.11556335 120.6320343 16.10968018 C119.45535187 16.10856232 118.27866943 16.10744446 117.06632996 16.10629272 C115.8270726 16.10132782 114.58781525 16.09636292 113.31100464 16.09124756 C109.91004569 16.0791373 106.50914824 16.0716803 103.10817504 16.0672369 C100.9825786 16.06430456 98.85698754 16.06019944 96.73139381 16.05573273 C90.0785497 16.04205979 83.4257179 16.03239229 76.77286071 16.02853084 C69.09753447 16.02405125 61.42238642 16.00650725 53.74711436 15.97753024 C47.81154904 15.95590051 41.87603381 15.94582586 35.94042951 15.94448972 C32.39670129 15.94344255 28.85314063 15.9375539 25.30945396 15.9196701 C21.35465647 15.90009978 17.40008095 15.90448357 13.44523621 15.91098022 C12.27462646 15.90176544 11.10401672 15.89255066 9.89793396 15.88305664 C2.05722331 15.91190002 2.05722331 15.91190002 -4.93830872 19.26742554 Z " fill="#000000" transform="translate(238.9383087158203,279.7325744628906)"/>
<path d="M0 0 C1.19012192 -0.00852997 2.38024384 -0.01705994 3.60643005 -0.02584839 C5.55232025 -0.02448883 5.55232025 -0.02448883 7.53752136 -0.02310181 C8.92427939 -0.02908944 10.31103409 -0.03589553 11.69778442 -0.04345703 C15.45825403 -0.06110158 19.21863257 -0.06581179 22.97913957 -0.0670886 C25.3309074 -0.06851177 27.68265219 -0.07278453 30.03441429 -0.07808304 C38.24575135 -0.09657903 46.45702354 -0.1047543 54.66838074 -0.10317993 C62.31138488 -0.10197902 69.9541064 -0.12307241 77.59703904 -0.15466726 C84.16792461 -0.18085823 90.73871803 -0.19154603 97.30965537 -0.19026911 C101.23015673 -0.18976025 105.15040692 -0.1954008 109.07085609 -0.21662521 C112.76049191 -0.23605513 116.44963821 -0.23610013 120.13929176 -0.22159195 C122.12967436 -0.21851929 124.12005725 -0.23514747 126.11036682 -0.25247192 C134.33505102 -0.19490663 139.94346912 0.65860019 146.30387878 6.23226929 C146.84270691 6.88324585 147.38153503 7.53422241 147.93669128 8.20492554 C148.49098816 8.85332397 149.04528503 9.50172241 149.61637878 10.16976929 C154.09581225 16.67100111 153.73632857 23.6388347 153.06169128 31.26742554 C151.38083546 37.92701887 146.59790806 42.45290001 141.06169128 46.26742554 C137.2845336 48.06180492 134.29034108 48.52131986 130.12338257 48.53485107 C128.93326065 48.54338104 127.74313873 48.55191101 126.51695251 48.56069946 C125.21969238 48.55979309 123.92243225 48.55888672 122.58586121 48.55795288 C121.19910318 48.56394051 119.81234848 48.5707466 118.42559814 48.57830811 C114.66512854 48.59595265 110.90475 48.60066286 107.144243 48.60193968 C104.79247517 48.60336285 102.44073038 48.60763561 100.08896828 48.61293411 C91.87763122 48.6314301 83.66635903 48.63960537 75.45500183 48.63803101 C67.81199769 48.63683009 60.16927617 48.65792348 52.52634352 48.68951833 C45.95545796 48.71570931 39.38466454 48.72639711 32.8137272 48.72512019 C28.89322584 48.72461133 24.97297565 48.73025187 21.05252647 48.75147629 C17.36289065 48.77090621 13.67374436 48.7709512 9.98409081 48.75644302 C7.99370821 48.75337036 6.00332532 48.76999854 4.01301575 48.787323 C-4.21166845 48.72975771 -9.82008655 47.87625088 -16.18049622 42.30258179 C-16.71932434 41.65160522 -17.25815247 41.00062866 -17.81330872 40.32992554 C-18.36760559 39.6815271 -18.92190247 39.03312866 -19.49299622 38.36508179 C-23.97242969 31.86384997 -23.612946 24.89601637 -22.93830872 17.26742554 C-21.25745289 10.6078322 -16.4745255 6.08195107 -10.93830872 2.26742554 C-7.16115103 0.47304615 -4.16695851 0.01353122 0 0 Z M-4.93830872 19.26742554 C-6.35872692 22.10826195 -6.25283144 24.12219831 -5.93830872 27.26742554 C-3.70624441 30.11523173 -2.38837873 31.1174022 1.06169128 32.26742554 C2.78622208 32.36381516 4.51424139 32.40236271 6.24145508 32.40786743 C7.85015221 32.41643265 7.85015221 32.41643265 9.49134827 32.4251709 C10.6680307 32.42628876 11.84471313 32.42740662 13.05705261 32.42855835 C14.91593864 32.43600571 14.91593864 32.43600571 16.81237793 32.44360352 C20.21333688 32.45571377 23.61423433 32.46317077 27.01520753 32.46761417 C29.14080397 32.47054651 31.26639503 32.47465164 33.39198875 32.47911835 C40.04483287 32.49279129 46.69766467 32.50245878 53.35052186 32.50632024 C61.0258481 32.51079983 68.70099615 32.52834382 76.37626821 32.55732083 C82.31183352 32.57895057 88.24734876 32.58902521 94.18295306 32.59036136 C97.72668127 32.59140852 101.27024194 32.59729717 104.8139286 32.61518097 C108.7687261 32.63475129 112.72330162 32.6303675 116.67814636 32.62387085 C117.8487561 32.63308563 119.01936584 32.64230042 120.22544861 32.65179443 C128.06615926 32.62295105 128.06615926 32.62295105 135.06169128 29.26742554 C136.48210949 26.42658912 136.37621401 24.41265276 136.06169128 21.26742554 C133.82962697 18.41961935 132.5117613 17.41744888 129.06169128 16.26742554 C127.33716049 16.17103592 125.60914118 16.13248837 123.88192749 16.12698364 C122.80946274 16.1212735 121.73699799 16.11556335 120.6320343 16.10968018 C119.45535187 16.10856232 118.27866943 16.10744446 117.06632996 16.10629272 C115.8270726 16.10132782 114.58781525 16.09636292 113.31100464 16.09124756 C109.91004569 16.0791373 106.50914824 16.0716803 103.10817504 16.0672369 C100.9825786 16.06430456 98.85698754 16.06019944 96.73139381 16.05573273 C90.0785497 16.04205979 83.4257179 16.03239229 76.77286071 16.02853084 C69.09753447 16.02405125 61.42238642 16.00650725 53.74711436 15.97753024 C47.81154904 15.95590051 41.87603381 15.94582586 35.94042951 15.94448972 C32.39670129 15.94344255 28.85314063 15.9375539 25.30945396 15.9196701 C21.35465647 15.90009978 17.40008095 15.90448357 13.44523621 15.91098022 C12.27462646 15.90176544 11.10401672 15.89255066 9.89793396 15.88305664 C2.05722331 15.91190002 2.05722331 15.91190002 -4.93830872 19.26742554 Z " fill="#000000" transform="translate(238.9383087158203,183.73257446289063)"/>
<path d="M0 0 C1.19012192 -0.00852997 2.38024384 -0.01705994 3.60643005 -0.02584839 C5.55232025 -0.02448883 5.55232025 -0.02448883 7.53752136 -0.02310181 C8.92427939 -0.02908944 10.31103409 -0.03589553 11.69778442 -0.04345703 C15.45825403 -0.06110158 19.21863257 -0.06581179 22.97913957 -0.0670886 C25.3309074 -0.06851177 27.68265219 -0.07278453 30.03441429 -0.07808304 C38.24575135 -0.09657903 46.45702354 -0.1047543 54.66838074 -0.10317993 C62.31138488 -0.10197902 69.9541064 -0.12307241 77.59703904 -0.15466726 C84.16792461 -0.18085823 90.73871803 -0.19154603 97.30965537 -0.19026911 C101.23015673 -0.18976025 105.15040692 -0.1954008 109.07085609 -0.21662521 C112.76049191 -0.23605513 116.44963821 -0.23610013 120.13929176 -0.22159195 C122.12967436 -0.21851929 124.12005725 -0.23514747 126.11036682 -0.25247192 C134.33505102 -0.19490663 139.94346912 0.65860019 146.30387878 6.23226929 C146.84270691 6.88324585 147.38153503 7.53422241 147.93669128 8.20492554 C148.49098816 8.85332397 149.04528503 9.50172241 149.61637878 10.16976929 C154.09581225 16.67100111 153.73632857 23.6388347 153.06169128 31.26742554 C151.38083546 37.92701887 146.59790806 42.45290001 141.06169128 46.26742554 C137.2845336 48.06180492 134.29034108 48.52131986 130.12338257 48.53485107 C128.93326065 48.54338104 127.74313873 48.55191101 126.51695251 48.56069946 C125.21969238 48.55979309 123.92243225 48.55888672 122.58586121 48.55795288 C121.19910318 48.56394051 119.81234848 48.5707466 118.42559814 48.57830811 C114.66512854 48.59595265 110.90475 48.60066286 107.144243 48.60193968 C104.79247517 48.60336285 102.44073038 48.60763561 100.08896828 48.61293411 C91.87763122 48.6314301 83.66635903 48.63960537 75.45500183 48.63803101 C67.81199769 48.63683009 60.16927617 48.65792348 52.52634352 48.68951833 C45.95545796 48.71570931 39.38466454 48.72639711 32.8137272 48.72512019 C28.89322584 48.72461133 24.97297565 48.73025187 21.05252647 48.75147629 C17.36289065 48.77090621 13.67374436 48.7709512 9.98409081 48.75644302 C7.99370821 48.75337036 6.00332532 48.76999854 4.01301575 48.787323 C-4.21166845 48.72975771 -9.82008655 47.87625088 -16.18049622 42.30258179 C-16.71932434 41.65160522 -17.25815247 41.00062866 -17.81330872 40.32992554 C-18.36760559 39.6815271 -18.92190247 39.03312866 -19.49299622 38.36508179 C-23.97242969 31.86384997 -23.612946 24.89601637 -22.93830872 17.26742554 C-21.25745289 10.6078322 -16.4745255 6.08195107 -10.93830872 2.26742554 C-7.16115103 0.47304615 -4.16695851 0.01353122 0 0 Z M-4.93830872 19.26742554 C-6.35872692 22.10826195 -6.25283144 24.12219831 -5.93830872 27.26742554 C-3.70624441 30.11523173 -2.38837873 31.1174022 1.06169128 32.26742554 C2.78622208 32.36381516 4.51424139 32.40236271 6.24145508 32.40786743 C7.85015221 32.41643265 7.85015221 32.41643265 9.49134827 32.4251709 C10.6680307 32.42628876 11.84471313 32.42740662 13.05705261 32.42855835 C14.91593864 32.43600571 14.91593864 32.43600571 16.81237793 32.44360352 C20.21333688 32.45571377 23.61423433 32.46317077 27.01520753 32.46761417 C29.14080397 32.47054651 31.26639503 32.47465164 33.39198875 32.47911835 C40.04483287 32.49279129 46.69766467 32.50245878 53.35052186 32.50632024 C61.0258481 32.51079983 68.70099615 32.52834382 76.37626821 32.55732083 C82.31183352 32.57895057 88.24734876 32.58902521 94.18295306 32.59036136 C97.72668127 32.59140852 101.27024194 32.59729717 104.8139286 32.61518097 C108.7687261 32.63475129 112.72330162 32.6303675 116.67814636 32.62387085 C117.8487561 32.63308563 119.01936584 32.64230042 120.22544861 32.65179443 C128.06615926 32.62295105 128.06615926 32.62295105 135.06169128 29.26742554 C136.48210949 26.42658912 136.37621401 24.41265276 136.06169128 21.26742554 C133.82962697 18.41961935 132.5117613 17.41744888 129.06169128 16.26742554 C127.33716049 16.17103592 125.60914118 16.13248837 123.88192749 16.12698364 C122.80946274 16.1212735 121.73699799 16.11556335 120.6320343 16.10968018 C119.45535187 16.10856232 118.27866943 16.10744446 117.06632996 16.10629272 C115.8270726 16.10132782 114.58781525 16.09636292 113.31100464 16.09124756 C109.91004569 16.0791373 106.50914824 16.0716803 103.10817504 16.0672369 C100.9825786 16.06430456 98.85698754 16.06019944 96.73139381 16.05573273 C90.0785497 16.04205979 83.4257179 16.03239229 76.77286071 16.02853084 C69.09753447 16.02405125 61.42238642 16.00650725 53.74711436 15.97753024 C47.81154904 15.95590051 41.87603381 15.94582586 35.94042951 15.94448972 C32.39670129 15.94344255 28.85314063 15.9375539 25.30945396 15.9196701 C21.35465647 15.90009978 17.40008095 15.90448357 13.44523621 15.91098022 C12.27462646 15.90176544 11.10401672 15.89255066 9.89793396 15.88305664 C2.05722331 15.91190002 2.05722331 15.91190002 -4.93830872 19.26742554 Z " fill="#000000" transform="translate(238.9383087158203,87.73257446289063)"/>
<path d="M0 0 C8.80288754 6.34043826 15.4186507 14.72648904 17.58203125 25.4921875 C18.92007691 37.90936834 17.85729499 48.88109459 10.39453125 59.2421875 C3.58210875 67.3274193 -4.72289951 73.55522767 -15.48876953 74.71533203 C-28.40007937 75.61089799 -39.16843729 74.04490094 -49.3515625 65.46484375 C-57.86959925 57.33325857 -62.42046403 48.68416257 -62.88867188 36.85693359 C-63.04371176 24.34263074 -60.22647828 14.71931927 -51.41796875 5.4921875 C-37.63784493 -7.66275112 -16.31305228 -10.17259803 0 0 Z M-41.109375 19.56640625 C-45.51563513 26.35782143 -46.12072293 32.4869008 -45.41796875 40.4921875 C-43.66220454 47.13501515 -38.96234182 51.67204218 -33.41796875 55.4921875 C-27.41909871 58.43281007 -20.53513345 58.59102538 -14.10546875 56.875 C-7.97664014 54.16969675 -3.17844083 49.08355055 -0.24609375 43.1015625 C1.66008982 37.09528598 1.64641812 29.98927192 -0.91796875 24.1796875 C-4.40315233 18.23875179 -9.85239905 13.57680459 -16.41796875 11.4921875 C-26.20427189 10.15827462 -34.63359283 11.62497362 -41.109375 19.56640625 Z " fill="#000000" transform="translate(182.41796875,365.5078125)"/>
<path d="M0 0 C8.80288754 6.34043826 15.4186507 14.72648904 17.58203125 25.4921875 C18.92007691 37.90936834 17.85729499 48.88109459 10.39453125 59.2421875 C3.58210875 67.3274193 -4.72289951 73.55522767 -15.48876953 74.71533203 C-28.40007937 75.61089799 -39.16843729 74.04490094 -49.3515625 65.46484375 C-57.86959925 57.33325857 -62.42046403 48.68416257 -62.88867188 36.85693359 C-63.04371176 24.34263074 -60.22647828 14.71931927 -51.41796875 5.4921875 C-37.63784493 -7.66275112 -16.31305228 -10.17259803 0 0 Z M-41.109375 19.56640625 C-45.51563513 26.35782143 -46.12072293 32.4869008 -45.41796875 40.4921875 C-43.66220454 47.13501515 -38.96234182 51.67204218 -33.41796875 55.4921875 C-27.41909871 58.43281007 -20.53513345 58.59102538 -14.10546875 56.875 C-7.97664014 54.16969675 -3.17844083 49.08355055 -0.24609375 43.1015625 C1.66008982 37.09528598 1.64641812 29.98927192 -0.91796875 24.1796875 C-4.40315233 18.23875179 -9.85239905 13.57680459 -16.41796875 11.4921875 C-26.20427189 10.15827462 -34.63359283 11.62497362 -41.109375 19.56640625 Z " fill="#000000" transform="translate(182.41796875,269.5078125)"/>
<path d="M0 0 C8.80288754 6.34043826 15.4186507 14.72648904 17.58203125 25.4921875 C18.92007691 37.90936834 17.85729499 48.88109459 10.39453125 59.2421875 C3.58210875 67.3274193 -4.72289951 73.55522767 -15.48876953 74.71533203 C-28.40007937 75.61089799 -39.16843729 74.04490094 -49.3515625 65.46484375 C-57.86959925 57.33325857 -62.42046403 48.68416257 -62.88867188 36.85693359 C-63.04371176 24.34263074 -60.22647828 14.71931927 -51.41796875 5.4921875 C-37.63784493 -7.66275112 -16.31305228 -10.17259803 0 0 Z M-41.109375 19.56640625 C-45.51563513 26.35782143 -46.12072293 32.4869008 -45.41796875 40.4921875 C-43.66220454 47.13501515 -38.96234182 51.67204218 -33.41796875 55.4921875 C-27.41909871 58.43281007 -20.53513345 58.59102538 -14.10546875 56.875 C-7.97664014 54.16969675 -3.17844083 49.08355055 -0.24609375 43.1015625 C1.66008982 37.09528598 1.64641812 29.98927192 -0.91796875 24.1796875 C-4.40315233 18.23875179 -9.85239905 13.57680459 -16.41796875 11.4921875 C-26.20427189 10.15827462 -34.63359283 11.62497362 -41.109375 19.56640625 Z " fill="#000000" transform="translate(182.41796875,173.5078125)"/>
<path d="M0 0 C8.80288754 6.34043826 15.4186507 14.72648904 17.58203125 25.4921875 C18.92007691 37.90936834 17.85729499 48.88109459 10.39453125 59.2421875 C3.58210875 67.3274193 -4.72289951 73.55522767 -15.48876953 74.71533203 C-28.40007937 75.61089799 -39.16843729 74.04490094 -49.3515625 65.46484375 C-57.86959925 57.33325857 -62.42046403 48.68416257 -62.88867188 36.85693359 C-63.04371176 24.34263074 -60.22647828 14.71931927 -51.41796875 5.4921875 C-37.63784493 -7.66275112 -16.31305228 -10.17259803 0 0 Z M-41.109375 19.56640625 C-45.51563513 26.35782143 -46.12072293 32.4869008 -45.41796875 40.4921875 C-43.66220454 47.13501515 -38.96234182 51.67204218 -33.41796875 55.4921875 C-27.41909871 58.43281007 -20.53513345 58.59102538 -14.10546875 56.875 C-7.97664014 54.16969675 -3.17844083 49.08355055 -0.24609375 43.1015625 C1.66008982 37.09528598 1.64641812 29.98927192 -0.91796875 24.1796875 C-4.40315233 18.23875179 -9.85239905 13.57680459 -16.41796875 11.4921875 C-26.20427189 10.15827462 -34.63359283 11.62497362 -41.109375 19.56640625 Z " fill="#000000" transform="translate(182.41796875,77.5078125)"/>
</svg>
