<?xml version="1.0" encoding="UTF-8"?>
<svg version="1.1" xmlns="http://www.w3.org/2000/svg" width="512" height="512">
<path d="M0 0 C1.6828585 0.3338951 3.36579844 0.66738001 5.04881287 1.00048828 C9.59247419 1.90106386 14.13493745 2.80754979 18.6771698 3.71530151 C23.43618634 4.66549086 28.19618791 5.61072152 32.95605469 6.55664062 C40.93896991 8.14385478 48.92113251 9.73480934 56.90283203 11.328125 C66.13723713 13.17147063 75.37270819 15.00939562 84.60878658 16.84433746 C93.49831561 18.61051243 102.38718748 20.37997196 111.27572632 22.15112305 C115.05859134 22.90487724 118.84166616 23.65756554 122.62490845 24.40942383 C127.07090887 25.29318742 131.51632201 26.17984715 135.96129036 27.06878662 C137.59539074 27.39511276 139.22968938 27.72044783 140.86419487 28.04473877 C143.08806743 28.48613603 145.31120295 28.93106972 147.53417969 29.37695312 C148.78036072 29.62546021 150.02654175 29.87396729 151.31048584 30.13000488 C154.19921875 30.78125 154.19921875 30.78125 156.19921875 31.78125 C156.21339844 31.224375 156.22757812 30.6675 156.2421875 30.09375 C156.62721182 23.93336086 158.06257617 19.44640711 162.19921875 14.78125 C168.82070753 9.39042176 174.89385908 8.62651986 183.28125 8.578125 C184.05425949 8.57242493 184.82726898 8.56672485 185.623703 8.56085205 C187.25506231 8.55143465 188.88644036 8.54488108 190.51782227 8.54101562 C192.99334469 8.53132195 195.46803185 8.50027342 197.94335938 8.46875 C199.53515137 8.46221752 201.12694924 8.45696801 202.71875 8.453125 C203.4492305 8.4407782 204.179711 8.4284314 204.93232727 8.41571045 C211.63998083 8.44430449 216.89097969 10.22762755 222.44921875 13.96875 C227.15089745 18.77728503 229.62658372 23.8376004 229.73419237 30.67097616 C229.72526948 31.3698238 229.7163466 32.06867145 229.70715332 32.78869629 C229.71339328 33.55351145 229.71963325 34.31832662 229.7260623 35.106318 C229.74190902 37.64737213 229.72942142 40.18745583 229.71679688 42.72851562 C229.72222171 44.55906225 229.7293464 46.38960451 229.73803711 48.22013855 C229.75623033 53.17676492 229.74921945 58.13305725 229.73652077 63.08968925 C229.72637237 68.28428909 229.73579156 73.47886091 229.74206543 78.67346191 C229.74933647 87.39580402 229.73976836 96.11801052 229.72070312 104.84033203 C229.69893547 114.91515868 229.70598722 124.9896615 229.72800875 135.0644803 C229.7461782 143.72459571 229.7487135 152.3846138 229.73825407 161.04474211 C229.73202766 166.21264673 229.7311601 171.3803993 229.74440002 176.54829407 C229.75598036 181.40757164 229.74789286 186.26643292 229.724823 191.12566566 C229.71954758 192.90579348 229.72102966 194.68595651 229.72987366 196.46607018 C229.74085937 198.90244948 229.72703054 201.33750782 229.70715332 203.77380371 C229.71607621 204.47265135 229.72499909 205.17149899 229.73419237 205.89152384 C229.63684335 212.07339154 227.47506737 217.19596582 223.41796875 221.8046875 C222.85078125 222.25070312 222.28359375 222.69671875 221.69921875 223.15625 C221.13203125 223.61773437 220.56484375 224.07921875 219.98046875 224.5546875 C212.37341882 229.79287539 203.50896886 228.99739505 194.62402344 229.02148438 C192.46900393 229.03116116 190.3149515 229.06222122 188.16015625 229.09375 C179.28123461 229.16224179 170.2230493 229.09571611 162.82421875 223.53125 C156.69103778 217.10601279 155.15890513 211.48899216 155.19921875 202.78125 C154.25653641 203.08476883 153.31385406 203.38828766 152.34260559 203.70100403 C142.74024532 206.76353915 133.07936103 209.49246166 123.33914757 212.07855797 C118.19310875 213.45305887 113.05834674 214.86930127 107.92189312 216.27911663 C103.43486561 217.50823304 98.94454836 218.72116313 94.44458008 219.90209961 C90.04532908 221.05751062 85.65913555 222.25389968 81.27884865 223.47916603 C79.61915197 223.93545984 77.9552632 224.37679082 76.28745079 224.80246544 C67.30055768 226.70542156 67.30055768 226.70542156 60.57022095 232.24624634 C59.8041042 234.80204944 59.46623724 237.13532679 59.19921875 239.78125 C54.76748934 248.47425769 46.33285385 253.32535059 37.484375 256.71484375 C25.63368635 260.56173793 14.51812131 261.18836183 2.19921875 260.78125 C1.88210938 261.4825 1.565 262.18375 1.23828125 262.90625 C-4.10842333 273.77689798 -11.45106374 279.26417726 -22.55078125 283.7734375 C-32.32872817 286.80554123 -41.23719333 286.91719322 -51.40625 286.3515625 C-54.31164359 286.27116167 -56.94249216 286.24942128 -59.80078125 286.78125 C-62.42007241 289.42868051 -62.42007241 289.42868051 -63.80078125 292.78125 C-72.45158227 302.62651308 -85.46452398 307.90986819 -98.40136719 309.00048828 C-111.0023355 309.54430038 -122.84912866 310.00316143 -132.98828125 301.53125 C-134.27603356 300.29868708 -135.54678863 299.04814378 -136.80078125 297.78125 C-137.46851563 297.13800781 -138.13625 296.49476563 -138.82421875 295.83203125 C-142.06230326 292.67458869 -145.12734769 289.42503353 -148.09375 286.01171875 C-151.65031466 281.92443651 -155.32903381 277.9678733 -159.05078125 274.03125 C-164.45315029 268.29310663 -169.81338039 262.52189591 -175.12890625 256.703125 C-177.98955819 253.57480972 -180.86193578 250.45762593 -183.73828125 247.34375 C-184.48368164 246.53647461 -184.48368164 246.53647461 -185.24414062 245.71289062 C-187.79787011 242.94772688 -190.35325115 240.18410247 -192.91015625 237.421875 C-198.92525239 230.92014515 -204.89757912 224.38508471 -210.80078125 217.78125 C-211.22488281 218.16796875 -211.64898437 218.5546875 -212.0859375 218.953125 C-222.20819808 227.94080252 -230.79369276 228.96809373 -244.05859375 228.96655273 C-246.16296703 228.9687367 -248.26681309 228.98692183 -250.37109375 229.00585938 C-259.94200977 229.04659423 -268.02229877 229.00403599 -275.80078125 222.78125 C-281.24494692 217.17119563 -283.10185653 212.97838704 -283.06820679 205.21685791 C-283.0727379 204.45137689 -283.07726901 203.68589588 -283.08193743 202.89721847 C-283.09460557 200.33018077 -283.09295951 197.76335458 -283.09130859 195.19628906 C-283.09729243 193.35648322 -283.10409764 191.5166799 -283.11166382 189.67687988 C-283.12934796 184.67672566 -283.13402028 179.67663987 -283.13529539 174.67645741 C-283.13719413 170.50165195 -283.14455155 166.32686245 -283.15163958 162.15206313 C-283.16793108 152.30026044 -283.17280792 142.4484943 -283.17138672 132.59667969 C-283.17018575 122.43788875 -283.19127685 112.27931043 -283.22287405 102.12057328 C-283.2490398 93.39686276 -283.25975385 84.67322165 -283.2584759 75.94947219 C-283.25796626 70.74012645 -283.26365024 65.53096953 -283.284832 60.3216629 C-283.3042188 55.41979314 -283.30433575 50.51829219 -283.28979874 45.6164093 C-283.28770994 43.82014679 -283.29241575 42.02386119 -283.30451965 40.22763824 C-283.32000907 37.769187 -283.31064048 35.3120016 -283.29525757 32.85357666 C-283.30554469 32.14810959 -283.31583182 31.44264252 -283.32643068 30.71579766 C-283.24095203 24.50452018 -281.14761775 19.24210285 -276.87109375 14.7578125 C-276.22914063 14.31179687 -275.5871875 13.86578125 -274.92578125 13.40625 C-274.28898437 12.94476563 -273.6521875 12.48328125 -272.99609375 12.0078125 C-267.63970271 9.0150958 -262.51125067 8.46330438 -256.47265625 8.4453125 C-255.28908539 8.4353273 -255.28908539 8.4353273 -254.081604 8.42514038 C-252.41754471 8.41505455 -250.7534453 8.4103221 -249.08935547 8.41064453 C-246.57189496 8.40628655 -244.05621173 8.36996832 -241.5390625 8.33203125 C-223.52186275 8.2045421 -223.52186275 8.2045421 -216.02490234 14.2019043 C-212.75084666 17.56343475 -211.17531784 21.12433145 -209.63671875 25.52734375 C-209.11537354 27.00545532 -209.11537354 27.00545532 -208.58349609 28.51342773 C-208.3252002 29.26180908 -208.0669043 30.01019043 -207.80078125 30.78125 C-197.81117497 28.63454444 -187.82171669 26.4871516 -177.83243752 24.33892441 C-173.19207269 23.34102039 -168.55166062 22.34333728 -163.91113281 21.34619141 C-159.4176206 20.38062683 -154.92424263 19.41443973 -150.43095016 18.44785309 C-148.73214687 18.08251846 -147.03329845 17.71739362 -145.33440018 17.35250092 C-143.71342804 17.00431795 -142.09256204 16.65564046 -140.47180748 16.30644608 C-138.9015082 15.96897042 -137.3307239 15.6337429 -135.75943947 15.30088425 C-131.79682277 14.45584588 -127.85805881 13.55724507 -123.92938232 12.56555176 C-122.73227914 12.27282568 -122.73227914 12.27282568 -121.51099205 11.97418594 C-120.01072461 11.60530663 -118.51403962 11.22134548 -117.02253151 10.81850815 C-111.4751632 9.47613369 -107.23424107 10.19959852 -101.80078125 11.78125 C-100.84227768 12.03601105 -99.88377411 12.29077209 -98.89622498 12.55325317 C-97.64713097 12.91965408 -97.64713097 12.91965408 -96.37280273 13.29345703 C-95.41248642 13.5735965 -94.4521701 13.85373596 -93.4627533 14.1423645 C-92.45926346 14.43827484 -91.45577362 14.73418518 -90.421875 15.0390625 C-89.36919937 15.34697723 -88.31652374 15.65489197 -87.23194885 15.97213745 C-83.89992127 16.94745187 -80.56909064 17.92678439 -77.23828125 18.90625 C-74.96687503 19.57188134 -72.69539141 20.2372486 -70.42382812 20.90234375 C-64.88191364 22.52559281 -59.34097386 24.15213442 -53.80078125 25.78125 C-50.79172565 22.84119472 -47.98453649 19.90565986 -45.42578125 16.56640625 C-44.8328125 15.79748047 -44.23984375 15.02855469 -43.62890625 14.23632812 C-43.025625 13.44677734 -42.42234375 12.65722656 -41.80078125 11.84375 C-39.47605971 8.81614791 -37.14511775 5.79369436 -34.80078125 2.78125 C-34.32382813 2.16491699 -33.846875 1.54858398 -33.35546875 0.91357422 C-25.75994845 -8.61209514 -10.4848304 -2.10284965 0 0 Z M-20.80078125 13.78125 C-22.40941857 15.70664361 -24.01739624 17.63258161 -25.625 19.55883789 C-26.07838745 20.10136452 -26.5317749 20.64389114 -26.99890137 21.20285797 C-30.01568789 24.81896453 -32.95205502 28.4696228 -35.80078125 32.21875 C-36.63927492 33.31774495 -37.47781798 34.41670223 -38.31640625 35.515625 C-38.72955078 36.05896484 -39.14269531 36.60230469 -39.56835938 37.16210938 C-41.55401969 39.77084536 -43.55249848 42.36967633 -45.55078125 44.96875 C-45.95586914 45.4956543 -46.36095703 46.02255859 -46.77832031 46.56542969 C-50.35414927 51.21153745 -53.95080256 55.84134046 -57.55078125 60.46875 C-58.13835205 61.22438232 -58.72592285 61.98001465 -59.33129883 62.75854492 C-62.40156267 66.70507597 -65.47764198 70.64689573 -68.5625 74.58203125 C-83.34058936 91.1597707 -83.34058936 91.1597707 -89.14453125 111.64453125 C-87.86076733 119.62429109 -84.28124911 125.95291722 -77.80078125 130.78125 C-71.73513566 134.58073432 -65.88806619 135.82746825 -58.80078125 134.78125 C-50.68672921 132.87459113 -45.17174476 126.91251331 -39.38330078 121.30322266 C-36.79369766 118.81269722 -34.13697555 116.39604643 -31.48828125 113.96875 C-26.74184013 109.59138115 -22.01860013 105.18942611 -17.30078125 100.78125 C-14.80130795 98.44735185 -12.30121685 96.11411714 -9.80078125 93.78125 C-8.86975586 92.91209961 -8.86975586 92.91209961 -7.91992188 92.02539062 C-6.13234281 90.35836484 -4.34199202 88.69437192 -2.55078125 87.03125 C-2.01388672 86.52980469 -1.47699219 86.02835937 -0.92382812 85.51171875 C3.26717136 81.62896052 5.99782892 79.20171759 11.94628906 79.375 C16.39854978 80.17783505 19.87006646 82.80190396 23.57421875 85.28125 C25.41979976 86.47125203 27.26619389 87.65999367 29.11328125 88.84765625 C30.57942871 89.80115967 30.57942871 89.80115967 32.07519531 90.77392578 C35.36960799 92.89073268 38.69449532 94.95349614 42.03515625 96.99609375 C42.61063202 97.34801788 43.18610779 97.69994202 43.77902222 98.06253052 C45.50204908 99.11521421 47.2256177 100.16700677 48.94921875 101.21875 C53.04411744 103.72142524 57.12870329 106.2391045 61.19921875 108.78125 C62.09672852 109.33562744 62.99423828 109.89000488 63.91894531 110.46118164 C64.73331055 110.9793042 65.54767578 111.49742676 66.38671875 112.03125 C67.09699219 112.47855469 67.80726563 112.92585938 68.5390625 113.38671875 C70.19921875 114.78125 70.19921875 114.78125 71.44921875 118.34375 C71.17050118 122.17611663 70.79063444 123.93905215 68.19921875 126.78125 C65.63671875 127.90625 65.63671875 127.90625 62.19921875 127.78125 C54.52252329 124.68344944 47.534368 120.01440053 40.57421875 115.59375 C39.53040039 114.93898682 38.48658203 114.28422363 37.41113281 113.60961914 C32.65111021 110.62050368 27.91213891 107.6065302 23.22265625 104.5078125 C22.49127441 104.03110107 21.75989258 103.55438965 21.00634766 103.06323242 C19.66884159 102.18907554 18.33976952 101.30182747 17.02099609 100.3996582 C15.09162323 99.09191059 15.09162323 99.09191059 12.19921875 97.78125 C9.16215733 98.88416901 7.08030704 100.62361094 4.765625 102.8359375 C4.12254395 103.44526123 3.47946289 104.05458496 2.81689453 104.68237305 C1.79958252 105.65944214 1.79958252 105.65944214 0.76171875 106.65625 C-0.66604787 108.01497346 -2.09444284 109.3730369 -3.5234375 110.73046875 C-4.23773926 111.41028809 -4.95204102 112.09010742 -5.68798828 112.79052734 C-7.66251406 114.65097144 -9.65865854 116.48237539 -11.671875 118.30078125 C-12.26492432 118.83783691 -12.85797363 119.37489258 -13.46899414 119.92822266 C-14.58005628 120.93105517 -15.69494905 121.92966518 -16.81420898 122.92333984 C-19.51980829 125.37740809 -21.28650799 127.47670509 -22.80078125 130.78125 C-22.12873657 131.49087891 -22.12873657 131.49087891 -21.44311523 132.21484375 C-19.3732917 134.40218913 -17.30577895 136.59170618 -15.23828125 138.78125 C-14.53380859 139.52503906 -13.82933594 140.26882813 -13.10351562 141.03515625 C-9.12116688 145.25607888 -5.23095239 149.53507051 -1.42895508 153.91894531 C1.01684077 156.7164458 3.54229322 159.43686911 6.07421875 162.15625 C10.40035901 166.8222772 14.68188755 171.52408241 18.9296875 176.26171875 C23.31793429 181.13335245 27.76295684 185.95337324 32.19921875 190.78125 C33.61049579 192.31710874 35.02160325 193.85311962 36.43188477 195.38989258 C37.3532112 196.39328702 38.27555985 197.39574389 39.19897461 198.3972168 C41.41854799 200.8102484 43.60187935 203.24557379 45.75 205.72265625 C46.53761719 206.62886719 47.32523438 207.53507813 48.13671875 208.46875 C49.17119141 209.68111328 49.17119141 209.68111328 50.2265625 210.91796875 C52.37842465 212.95051973 53.3378897 213.32427227 56.19921875 213.78125 C58.94183081 213.20144863 61.55027628 212.53967959 64.23388672 211.75512695 C65.04103622 211.52761246 65.84818573 211.30009796 66.67979431 211.06568909 C69.35307991 210.30963393 72.02214161 209.53965093 74.69140625 208.76953125 C76.55762801 208.23874174 78.42409739 207.70882214 80.290802 207.17973328 C85.2165854 205.78105325 90.1389065 204.37054689 95.06060791 202.95758057 C100.02145825 201.53558735 104.98546019 200.1246915 109.94921875 198.71289062 C118.07251158 196.40085919 126.19456362 194.08454985 134.31229973 191.75307178 C138.04067213 190.6826285 141.7704733 189.61857183 145.50640869 188.57479858 C146.16433474 188.3900381 146.82226078 188.20527761 147.50012398 188.01491833 C149.24470723 187.52568834 150.99025133 187.03988831 152.73587036 186.55436707 C155.11983494 186.0149402 155.11983494 186.0149402 156.19921875 184.78125 C156.2955392 183.0223157 156.32109385 181.25947841 156.31947327 179.49790955 C156.32084793 178.35220993 156.3222226 177.20651031 156.32363892 176.02609253 C156.32004364 174.75798737 156.31644836 173.4898822 156.31274414 172.18334961 C156.31246227 170.84331769 156.31262 169.50328561 156.31318665 168.16325378 C156.31347462 164.51465562 156.30757795 160.86609005 156.30061269 157.21749949 C156.29437909 153.40847484 156.29377535 149.5994495 156.29258728 145.79042053 C156.28947398 138.57267246 156.28126061 131.35493946 156.27123779 124.13719803 C156.26007661 115.92209743 156.25456619 107.70699612 156.24954236 99.49188983 C156.239078 82.58833449 156.22147858 65.68479384 156.19921875 48.78125 C141.39007363 45.84133477 126.58079525 42.90209147 111.77137756 39.96354961 C104.88772893 38.59765489 98.0041172 37.23157476 91.12060547 35.86499023 C83.12609846 34.27786857 75.13148361 32.6912911 67.13671875 31.10546875 C66.47757477 30.97472253 65.81843079 30.84397632 65.13931274 30.70926809 C36.50000367 25.02892102 7.85142944 19.39616225 -20.80078125 13.78125 Z M-265.80078125 28.78125 C-266.96672133 32.27907024 -266.93260031 35.02142039 -266.94122314 38.71408081 C-266.94419427 39.42365437 -266.94716539 40.13322792 -266.95022655 40.86430371 C-266.95891553 43.24792659 -266.96042195 45.63149925 -266.96191406 48.01513672 C-266.96654205 49.72173164 -266.97156669 51.42832553 -266.97695923 53.13491821 C-266.99008605 57.77542376 -266.9965286 62.41591484 -267.00096989 67.05643606 C-267.00389982 69.9545788 -267.00800445 72.85271757 -267.01247406 75.75085831 C-267.02614899 84.81548923 -267.03581598 93.8801111 -267.03967595 102.94475162 C-267.04415851 113.41434224 -267.06171561 123.88380243 -267.09067655 134.35335338 C-267.11227774 142.44259977 -267.12237938 150.53180941 -267.12371707 158.62108433 C-267.12476611 163.45417551 -267.13069506 168.28714407 -267.14853668 173.12020493 C-267.16499063 177.66578215 -267.16718593 182.21114422 -267.15839767 186.75674057 C-267.15762589 188.42525813 -267.16198856 190.09378713 -267.17185593 191.7622757 C-267.18453618 194.03992513 -267.17872057 196.31680803 -267.16827393 198.5944519 C-267.16974049 199.86908232 -267.17120705 201.14371273 -267.17271805 202.45696831 C-266.77179225 206.0403467 -265.96418841 207.92738471 -263.80078125 210.78125 C-259.41255712 212.97536207 -253.55378247 212.09076422 -248.67993164 212.13134766 C-247.22403967 212.14789004 -245.76822835 212.17515836 -244.31274414 212.21337891 C-242.20807002 212.26833123 -240.10529618 212.29004616 -238 212.3046875 C-236.74018311 212.32450684 -235.48036621 212.34432617 -234.18237305 212.36474609 C-229.79361936 211.60746349 -228.55720137 210.23410868 -225.80078125 206.78125 C-225.05243898 203.360683 -225.05243898 203.360683 -225.16586304 199.53198242 C-225.15806308 198.81253291 -225.15026313 198.0930834 -225.14222682 197.35183239 C-225.12231714 194.94627024 -225.13806567 192.54229201 -225.15380859 190.13671875 C-225.14703196 188.41011635 -225.13812856 186.68352118 -225.1272583 184.9569397 C-225.10446373 180.27091883 -225.11330189 175.58544836 -225.12915373 170.89941788 C-225.14181191 165.99567429 -225.13007284 161.09197786 -225.1222229 156.18823242 C-225.1131261 147.95320168 -225.12511506 139.71839514 -225.14892578 131.48339844 C-225.17613711 121.96233878 -225.16732297 112.44181446 -225.13979375 102.92076778 C-225.11710456 94.74651221 -225.11390167 86.5724178 -225.1269871 78.39814091 C-225.13478265 73.5158568 -225.13582033 68.63382434 -225.11930466 63.7515564 C-225.10486191 59.16144118 -225.11487783 54.5720162 -225.14377594 49.98197556 C-225.15038783 48.29734824 -225.14848726 46.61266284 -225.13746262 44.92805862 C-225.12379845 42.62809401 -225.14092937 40.33034117 -225.16586304 38.03051758 C-225.16774817 36.74373611 -225.16963329 35.45695465 -225.17157555 34.13117981 C-225.96795193 29.89122304 -227.44030477 28.40622288 -230.80078125 25.78125 C-234.20248786 25.04901278 -234.20248786 25.04901278 -237.9296875 25.1875 C-238.60120346 25.18745972 -239.27271942 25.18741943 -239.96458435 25.18737793 C-241.3774456 25.19271657 -242.79030776 25.21022902 -244.20288086 25.23925781 C-246.36078882 25.28120155 -248.5155802 25.28031638 -250.67382812 25.2734375 C-258.93975142 24.89331738 -258.93975142 24.89331738 -265.80078125 28.78125 Z M173.19921875 28.78125 C172.797193 31.31456611 172.65847847 33.42000461 172.69128418 35.95532227 C172.68504422 36.69080827 172.67880425 37.42629427 172.6723752 38.18406773 C172.65638392 40.65558727 172.66907267 43.1261289 172.68164062 45.59765625 C172.6762222 47.36661354 172.66910112 49.13556631 172.66040039 50.9045105 C172.64213072 55.71441031 172.64924955 60.52396778 172.66191673 65.33387375 C172.67202557 70.36134532 172.66265696 75.38878707 172.65637207 80.41625977 C172.64908948 88.85991696 172.6586994 97.30343433 172.67773438 105.74707031 C172.69950428 115.51685955 172.69245334 125.28631493 172.67042875 135.05609608 C172.65229216 143.43578104 172.6497079 151.81536535 172.66018343 160.19506359 C172.66642795 165.20359459 172.66722773 170.21196852 172.65403748 175.2204895 C172.64250489 179.92866818 172.65045707 184.63641534 172.6736145 189.34454727 C172.6789155 191.07516894 172.67736415 192.80582676 172.66856384 194.53643417 C172.65767905 196.89384332 172.67128436 199.24985815 172.69128418 201.60717773 C172.68236129 202.29676354 172.67343841 202.98634935 172.66424513 203.6968317 C172.71601327 206.82909884 172.82817821 208.39162828 175.02968597 210.7033844 C179.69898576 213.02318232 185.34605969 212.29856087 190.47094727 212.28222656 C192.62717297 212.2812543 194.7798349 212.32288699 196.93554688 212.3671875 C198.3137947 212.37239535 199.69205483 212.37508268 201.0703125 212.375 C202.3173999 212.38208984 203.5644873 212.38917969 204.84936523 212.39648438 C209.19767166 211.59787406 210.45887611 210.20871433 213.19921875 206.78125 C213.94756102 203.360683 213.94756102 203.360683 213.83413696 199.53198242 C213.84193692 198.81253291 213.84973687 198.0930834 213.85777318 197.35183239 C213.87768286 194.94627024 213.86193433 192.54229201 213.84619141 190.13671875 C213.85296804 188.41011635 213.86187144 186.68352118 213.8727417 184.9569397 C213.89553627 180.27091883 213.88669811 175.58544836 213.87084627 170.89941788 C213.85818809 165.99567429 213.86992716 161.09197786 213.8777771 156.18823242 C213.8868739 147.95320168 213.87488494 139.71839514 213.85107422 131.48339844 C213.82386289 121.96233878 213.83267703 112.44181446 213.86020625 102.92076778 C213.88289544 94.74651221 213.88609833 86.5724178 213.8730129 78.39814091 C213.86521735 73.5158568 213.86417967 68.63382434 213.88069534 63.7515564 C213.89513809 59.16144118 213.88512217 54.5720162 213.85622406 49.98197556 C213.84961217 48.29734824 213.85151274 46.61266284 213.86253738 44.92805862 C213.87620155 42.62809401 213.85907063 40.33034117 213.83413696 38.03051758 C213.83225183 36.74373611 213.83036671 35.45695465 213.82842445 34.13117981 C213.03204807 29.89122304 211.55969523 28.40622288 208.19921875 25.78125 C204.79751214 25.04901278 204.79751214 25.04901278 201.0703125 25.1875 C200.39879654 25.18745972 199.72728058 25.18741943 199.03541565 25.18737793 C197.6225544 25.19271657 196.20969224 25.21022902 194.79711914 25.23925781 C192.63921118 25.28120155 190.4844198 25.28031638 188.32617188 25.2734375 C180.02705266 24.86822044 180.02705266 24.86822044 173.19921875 28.78125 Z M-115.96429443 28.57849121 C-116.78596603 28.75518845 -117.60763763 28.93188568 -118.45420837 29.11393738 C-119.79316917 29.40848564 -119.79316917 29.40848564 -121.15917969 29.70898438 C-122.10586014 29.91380936 -123.05254059 30.11863434 -124.02790833 30.32966614 C-127.15618925 31.00752604 -130.28316078 31.69123696 -133.41015625 32.375 C-135.57912501 32.84618569 -137.74817314 33.31700612 -139.91729736 33.78747559 C-145.62598216 35.02668273 -151.33357393 36.27085448 -157.04095459 37.51605225 C-162.86519451 38.78582872 -168.69045124 40.05092207 -174.515625 41.31640625 C-185.94501224 43.80009702 -197.37325058 46.28903212 -208.80078125 48.78125 C-209.0347316 67.64429363 -209.21089381 86.50704155 -209.31890297 105.3712368 C-209.37039451 114.13096079 -209.44055054 122.88978164 -209.55517578 131.64892578 C-209.6550755 139.28647471 -209.71941617 146.92336944 -209.7416662 154.5615536 C-209.75466674 158.60364156 -209.78505395 162.64385857 -209.85808182 166.6853447 C-209.92637746 170.49610796 -209.94681801 174.30424527 -209.93185806 178.11556244 C-209.93459116 179.50798234 -209.9542461 180.90049736 -209.992836 182.2923851 C-210.14827941 188.19246908 -210.1916885 192.87767236 -206.62730026 197.75584793 C-204.12368551 200.26624977 -201.52655521 202.51815156 -198.80078125 204.78125 C-197.5481225 206.13546383 -196.31757359 207.51115923 -195.12890625 208.921875 C-191.7154776 212.90221227 -188.15259768 216.72148196 -184.55078125 220.53125 C-179.14841221 226.26939337 -173.78818211 232.04060409 -168.47265625 237.859375 C-165.6120047 240.98768985 -162.73968375 244.1049272 -159.86328125 247.21875 C-159.36417236 247.75910889 -158.86506348 248.29946777 -158.35083008 248.85620117 C-157.33957513 249.95089892 -156.32826313 251.04554396 -155.31689453 252.14013672 C-152.31260457 255.39212337 -149.31001026 258.64567612 -146.30761719 261.89941406 C-143.77207589 264.64694053 -141.23506554 267.39308463 -138.6953125 270.13671875 C-137.92924683 270.96550537 -137.92924683 270.96550537 -137.14770508 271.81103516 C-136.13265064 272.90764926 -135.11558911 274.00240927 -134.09643555 275.09521484 C-131.78005372 277.58813738 -129.53947839 280.09573469 -127.36328125 282.71484375 C-122.00432072 289.12512813 -118.0162307 291.98529791 -109.7265625 293.046875 C-97.89372028 293.65929567 -85.64902097 290.05642774 -76.67578125 282.28125 C-74.52580958 279.95183658 -74.52580958 279.95183658 -74.86328125 277.15625 C-75.78536476 274.57638045 -75.78536476 274.57638045 -77.80078125 271.78125 C-78.34247166 268.29191956 -78.39390911 264.96750571 -76.80078125 261.78125 C-73.40753444 260.08462659 -70.41156901 259.88011753 -66.80078125 260.78125 C-64.3219979 262.36503171 -62.17439383 264.10195253 -59.9765625 266.0546875 C-53.8441152 270.92101014 -45.77014631 271.11955776 -38.21875 270.60546875 C-30.90133237 269.43515478 -21.93229136 266.42556199 -17.01171875 260.69921875 C-15.24881247 257.95176736 -15.24881247 257.95176736 -14.80078125 254.78125 C-15.81069884 253.08719469 -16.8231916 251.39444999 -17.86328125 249.71875 C-19.53406581 246.26579525 -19.24218962 243.56475029 -18.80078125 239.78125 C-17.80078125 237.78125 -17.80078125 237.78125 -15.80078125 236.78125 C-10.91493838 236.12980428 -8.1896557 236.14143157 -4.23828125 239.15625 C-3.37203125 239.83880859 -3.37203125 239.83880859 -2.48828125 240.53515625 C3.82858268 245.19969235 12.76325084 244.29297252 20.19921875 243.78125 C28.43234767 242.51765228 37.12132338 240.08814165 43.0078125 233.87109375 C44.37614087 231.89668952 44.37614087 231.89668952 44.12890625 229.8125 C42.9150825 227.16044812 41.31957212 225.4115205 39.32421875 223.28125 C38.1021875 221.96253906 38.1021875 221.96253906 36.85546875 220.6171875 C35.540625 219.21339844 35.540625 219.21339844 34.19921875 217.78125 C32.86273048 216.32290545 31.52627331 214.8645296 30.19238281 213.40380859 C27.86662705 210.85809378 25.53228189 208.3202663 23.19921875 205.78125 C17.26903204 199.32757094 11.35910697 192.85792264 5.50390625 186.3359375 C1.10089339 181.45530968 -3.35330634 176.62132959 -7.80078125 171.78125 C-16.90519949 161.87313139 -25.975552 151.94019557 -34.80078125 141.78125 C-39.19091924 142.59872397 -42.37133394 144.91513703 -46.0703125 147.30859375 C-54.75182458 151.99089712 -65.36808408 152.06292232 -74.8984375 150.1640625 C-86.12086813 146.51475412 -95.23439821 139.17284008 -100.80078125 128.78125 C-105.66278977 118.4928927 -106.83198219 106.93681001 -103.23828125 96.03125 C-99.22904324 86.57391852 -93.17548376 78.84949928 -86.55078125 71.09375 C-82.32629545 66.08331336 -78.48810467 60.77354829 -74.5859375 55.51171875 C-71.78049838 51.73204967 -68.87467861 48.03905674 -65.91015625 44.3828125 C-64.61097509 42.83194399 -64.61097509 42.83194399 -64.80078125 40.78125 C-70.84903063 38.92205424 -76.89988694 37.07154206 -82.95263672 35.22705078 C-85.01151644 34.5985165 -87.06979053 33.96799481 -89.12744141 33.33544922 C-92.08469285 32.42673278 -95.04404664 31.52517936 -98.00390625 30.625 C-98.92383362 30.34064087 -99.84376099 30.05628174 -100.79156494 29.76330566 C-101.65215515 29.50303589 -102.51274536 29.24276611 -103.39941406 28.97460938 C-104.154422 28.74366577 -104.90942993 28.51272217 -105.68731689 28.27478027 C-109.25879957 27.44077765 -112.44729013 27.81313276 -115.96429443 28.57849121 Z " fill="#000000" transform="translate(282.80078125,191.21875)"/>
<path d="M0 0 C1.14662109 0.00193359 1.14662109 0.00193359 2.31640625 0.00390625 C4.93857711 0.53993013 5.81402324 1.34030357 7.4375 3.4375 C8.50532486 6.64097459 8.55808306 8.91937823 8.55102539 12.28588867 C8.55094986 13.4869072 8.55087433 14.68792572 8.55079651 15.92533875 C8.54563522 17.22228165 8.54047394 18.51922455 8.53515625 19.85546875 C8.53329077 21.19639534 8.53186748 22.53732261 8.53086853 23.87825012 C8.52705356 27.40459073 8.51723199 30.93089004 8.50616455 34.45721436 C8.4959285 38.05675701 8.49136621 41.65630635 8.48632812 45.25585938 C8.4756088 52.31642313 8.45854462 59.37695887 8.4375 66.4375 C10.34813232 66.89020264 10.34813232 66.89020264 12.29736328 67.35205078 C15.59132326 68.1325172 17.78185276 68.97558652 20.3125 71.3125 C20.86679687 71.80492188 21.42109375 72.29734375 21.9921875 72.8046875 C25.45046574 76.71160724 25.69570024 80.06037444 25.72802734 85.20629883 C25.73474457 85.87838882 25.74146179 86.55047882 25.74838257 87.24293518 C25.76734714 89.46020955 25.77128617 91.67718087 25.7734375 93.89453125 C25.7798674 95.44146345 25.78659591 96.98839443 25.79360962 98.5353241 C25.80557915 101.77756569 25.80929087 105.01970077 25.80810547 108.26196289 C25.8079025 112.40466843 25.83518256 116.54668625 25.86964989 120.68922901 C25.89195491 123.88497517 25.89594189 127.0805569 25.89488602 130.27637291 C25.89723741 131.80291802 25.90603487 133.32946798 25.92155075 134.85593605 C26.05882585 149.75866371 26.05882585 149.75866371 21.4375 155.4375 C14.29832937 160.97399967 8.32315152 160.64974351 -0.375 160.6875 C-2.1394043 160.7184375 -2.1394043 160.7184375 -3.93945312 160.75 C-10.95370941 160.78172077 -16.04952362 160.67798135 -21.42578125 155.71875 C-21.90402344 155.1309375 -22.38226563 154.543125 -22.875 153.9375 C-23.36613281 153.3496875 -23.85726563 152.761875 -24.36328125 152.15625 C-26.84541516 148.59879424 -26.70385467 145.27204338 -26.73950195 141.07348633 C-26.75233719 139.75814407 -26.76517242 138.44280182 -26.77839661 137.08760071 C-26.78656606 135.64824807 -26.7940094 134.20889115 -26.80078125 132.76953125 C-26.80485678 132.04308599 -26.8089323 131.31664074 -26.81313133 130.56818199 C-26.83398116 126.7205064 -26.84828558 122.87286632 -26.85766602 119.02514648 C-26.86870734 115.06526281 -26.90308323 111.10594464 -26.94283772 107.14626026 C-26.96908139 104.08946239 -26.97736483 101.03279744 -26.98094749 97.97589684 C-26.98579624 96.51714969 -26.99736112 95.0584078 -27.01598549 93.5997715 C-27.12697324 84.32849912 -26.96297303 77.21515643 -20.375 70.0625 C-17.7051593 68.51992537 -15.86022828 67.95373984 -12.88671875 67.3359375 C-12.07678467 67.16497559 -11.26685059 66.99401367 -10.43237305 66.81787109 C-9.81531494 66.69234863 -9.19825684 66.56682617 -8.5625 66.4375 C-8.57138245 65.66964172 -8.58026489 64.90178345 -8.5894165 64.11065674 C-8.66959026 56.87159545 -8.73047805 49.63274965 -8.76974869 42.39336014 C-8.79061704 38.67155252 -8.81891981 34.95011198 -8.86425781 31.22851562 C-8.90774413 27.6364049 -8.93164277 24.04464705 -8.94200897 20.4522934 C-8.9493955 19.08232823 -8.96382001 17.71238223 -8.98542023 16.34256744 C-9.0144848 14.42290611 -9.01613416 12.5028891 -9.01660156 10.58300781 C-9.02548401 9.49046692 -9.03436646 8.39792603 -9.04351807 7.27227783 C-8.16855758 2.11588403 -5.10184462 -0.12948844 0 0 Z M-9.5625 83.4375 C-9.5625 103.2375 -9.5625 123.0375 -9.5625 143.4375 C-3.6225 143.4375 2.3175 143.4375 8.4375 143.4375 C8.4375 123.6375 8.4375 103.8375 8.4375 83.4375 C2.4975 83.4375 -3.4425 83.4375 -9.5625 83.4375 Z " fill="#000000" transform="translate(436.5625,11.5625)"/>
<path d="M0 0 C1.14662109 0.00193359 1.14662109 0.00193359 2.31640625 0.00390625 C4.96387838 0.54510221 5.83168176 1.28502023 7.4375 3.4375 C8.40986126 6.47902288 8.55455479 9.24051521 8.53515625 12.421875 C8.53193359 13.35644531 8.52871094 14.29101562 8.52539062 15.25390625 C8.51282227 16.70603516 8.51282227 16.70603516 8.5 18.1875 C8.49548828 19.17105469 8.49097656 20.15460937 8.48632812 21.16796875 C8.47456483 23.59120791 8.45812684 26.01432273 8.4375 28.4375 C9.36304688 28.40269531 10.28859375 28.36789063 11.2421875 28.33203125 C15.43595702 28.47045641 17.19727116 29.83122898 20.4375 32.4375 C24.80654532 37.27887454 25.56166893 40.57139979 25.61450195 47.00097656 C25.62435875 47.99426216 25.62435875 47.99426216 25.63441467 49.00761414 C25.65411442 51.19778565 25.66580377 53.38788864 25.67578125 55.578125 C25.67985678 56.32788353 25.6839323 57.07764206 25.68813133 57.85012054 C25.70897954 61.81983666 25.72328571 65.78951835 25.73266602 69.75927734 C25.74371818 73.84928716 25.77810725 77.9387511 25.81783772 82.02856827 C25.84404781 85.18226091 25.85236178 88.33582443 25.85594749 91.48961639 C25.86080342 92.99663727 25.87238906 94.50365276 25.89098549 96.01056671 C26.06020996 110.63407691 26.06020996 110.63407691 21.4375 116.4375 C19.47265625 118.21484375 19.47265625 118.21484375 17.5 119.375 C16.85160156 119.77589844 16.20320313 120.17679687 15.53515625 120.58984375 C13.04766915 121.59502941 11.09789394 121.49699763 8.4375 121.4375 C8.45321045 122.04223145 8.4689209 122.64696289 8.48510742 123.27001953 C8.5478188 126.03408296 8.58660411 128.79799621 8.625 131.5625 C8.65013672 132.51382813 8.67527344 133.46515625 8.70117188 134.4453125 C8.75758061 139.86055142 8.58112529 143.79437306 5.4375 148.4375 C2.30807535 150.00221233 -1.17332223 150.13451958 -4.5625 149.4375 C-7.21642672 147.32685566 -8.43736766 146.16972601 -9.01660156 142.78027344 C-8.9956543 141.79575195 -8.97470703 140.81123047 -8.953125 139.796875 C-8.93378906 138.19199219 -8.93378906 138.19199219 -8.9140625 136.5546875 C-8.88054687 135.44351563 -8.84703125 134.33234375 -8.8125 133.1875 C-8.79445313 132.06085938 -8.77640625 130.93421875 -8.7578125 129.7734375 C-8.71070222 126.99393104 -8.64493361 124.2161466 -8.5625 121.4375 C-9.46742187 121.47875 -10.37234375 121.52 -11.3046875 121.5625 C-14.54440495 121.43819429 -15.98137866 121.10280544 -18.6875 119.4375 C-19.65042969 118.880625 -19.65042969 118.880625 -20.6328125 118.3125 C-26.25444306 112.85018691 -27.00037349 106.95754913 -27.13020039 99.42730713 C-27.14435774 97.30546764 -27.13799593 95.18435902 -27.12890625 93.0625 C-27.13415014 91.56851822 -27.14042941 90.07453975 -27.14768982 88.58056641 C-27.15805741 85.46045266 -27.15358497 82.34079604 -27.13891602 79.22070312 C-27.12172183 75.2393846 -27.14524833 71.25950856 -27.18040562 67.27835083 C-27.20245479 64.1966003 -27.20092039 61.1151911 -27.1926403 58.03338623 C-27.1918251 56.56628841 -27.19860553 55.09916445 -27.21341133 53.63214111 C-27.34354193 38.40865046 -27.34354193 38.40865046 -21.5625 32.4375 C-17.40363999 29.04714034 -13.87469511 28.2581854 -8.5625 28.4375 C-8.58344727 27.73141602 -8.60439453 27.02533203 -8.62597656 26.29785156 C-8.70919298 23.09454624 -8.76117785 19.89146837 -8.8125 16.6875 C-8.84601563 15.57632812 -8.87953125 14.46515625 -8.9140625 13.3203125 C-8.92695312 12.25039063 -8.93984375 11.18046875 -8.953125 10.078125 C-8.97407227 9.09360352 -8.99501953 8.10908203 -9.01660156 7.09472656 C-8.15193026 2.03500481 -4.95951894 -0.12587612 0 0 Z M-9.5625 45.4375 C-9.65631302 47.27868029 -9.67993954 49.12347641 -9.67602539 50.96704102 C-9.67594986 52.14818985 -9.67587433 53.32933868 -9.67579651 54.54627991 C-9.67063522 55.8316716 -9.66547394 57.11706329 -9.66015625 58.44140625 C-9.6587413 59.74955795 -9.65732635 61.05770966 -9.65586853 62.40550232 C-9.6520441 65.88912859 -9.64221446 69.37271339 -9.63116455 72.85632324 C-9.62094882 76.40876708 -9.61637056 79.96121759 -9.61132812 83.51367188 C-9.60059212 90.48830004 -9.58299593 97.46289376 -9.5625 104.4375 C-3.6225 104.4375 2.3175 104.4375 8.4375 104.4375 C8.46005523 96.76213023 8.47841753 89.08677271 8.48931217 81.41137791 C8.49453995 77.84772578 8.50163569 74.28409743 8.51293945 70.72045898 C8.52584176 66.62743903 8.53072906 62.5344442 8.53515625 58.44140625 C8.54031754 57.15601456 8.54547882 55.87062286 8.55079651 54.54627991 C8.55087204 53.36513107 8.55094757 52.18398224 8.55102539 50.96704102 C8.553246 49.92113297 8.55546661 48.87522491 8.55775452 47.79762268 C8.70400985 45.48060705 8.70400985 45.48060705 7.4375 44.4375 C4.7601862 44.33768786 2.11445825 44.29870125 -0.5625 44.3125 C-1.31273437 44.30863281 -2.06296875 44.30476563 -2.8359375 44.30078125 C-6.49856117 43.96074459 -6.49856117 43.96074459 -9.5625 45.4375 Z " fill="#000000" transform="translate(76.5625,11.5625)"/>
<path d="M0 0 C1.14662109 0.00193359 1.14662109 0.00193359 2.31640625 0.00390625 C4.96387838 0.54510221 5.83168176 1.28502023 7.4375 3.4375 C8.83253315 7.33611941 8.56344527 11.40137205 8.53515625 15.484375 C8.5337413 16.25557678 8.53232635 17.02677856 8.53086853 17.8213501 C8.52528534 20.27677338 8.51273595 22.73210442 8.5 25.1875 C8.49498283 26.85546743 8.4904203 28.52343629 8.48632812 30.19140625 C8.47532141 34.27347287 8.45806836 38.35547081 8.4375 42.4375 C10.34813232 42.89020264 10.34813232 42.89020264 12.29736328 43.35205078 C15.59132326 44.1325172 17.78185276 44.97558652 20.3125 47.3125 C20.86679687 47.80492187 21.42109375 48.29734375 21.9921875 48.8046875 C25.44312442 52.70331354 25.69876526 56.05567992 25.74389648 61.19042969 C25.75222 61.86091339 25.76054352 62.53139709 25.76911926 63.22219849 C25.79317555 65.43465014 25.80198706 67.6468065 25.80859375 69.859375 C25.81756545 71.40391119 25.82668739 72.94844651 25.83595276 74.49298096 C25.85243485 77.73101916 25.86014107 80.9689541 25.86303711 84.20703125 C25.86841144 88.34080611 25.90605413 92.47359935 25.95178127 96.60709763 C25.98164298 99.79859894 25.98876267 102.98986684 25.98976326 106.18149567 C25.99394976 107.7044447 26.00632074 109.22739545 26.02728081 110.75020599 C26.22453936 126.32499232 26.22453936 126.32499232 20.4375 132.4375 C18.33984375 134.09375 18.33984375 134.09375 16.375 134.9375 C15.72402344 135.2365625 15.07304687 135.535625 14.40234375 135.84375 C12.4375 136.4375 12.4375 136.4375 8.4375 136.4375 C8.39882813 137.46810547 8.39882813 137.46810547 8.359375 138.51953125 C8.27429688 139.87111328 8.27429688 139.87111328 8.1875 141.25 C8.14109375 142.14332031 8.0946875 143.03664062 8.046875 143.95703125 C7.4375 146.4375 7.4375 146.4375 5.640625 148.234375 C2.20114917 150.11267031 -0.74816649 150.10969812 -4.5625 149.4375 C-7.0625 148 -7.0625 148 -8.5625 145.4375 C-8.8755292 142.40633395 -8.79593397 139.47214161 -8.5625 136.4375 C-9.7175 136.416875 -10.8725 136.39625 -12.0625 136.375 C-17.5167255 135.7053531 -21.10429703 132.56136645 -24.5625 128.4375 C-26.52609317 124.44944288 -26.82436577 121.15927753 -26.85302734 116.73876953 C-26.85974457 116.08604065 -26.86646179 115.43331177 -26.87338257 114.76080322 C-26.89230112 112.61389446 -26.89628355 110.46729931 -26.8984375 108.3203125 C-26.90486962 106.81965001 -26.91159829 105.31898876 -26.91860962 103.81832886 C-26.93056693 100.67621963 -26.93429204 97.53422021 -26.93310547 94.39208984 C-26.93290234 90.37831977 -26.96020401 86.36525824 -26.99464989 82.35165596 C-27.0169565 79.25284633 -27.02094188 76.15420623 -27.01988602 73.05532455 C-27.02223634 71.57622715 -27.03102772 70.09712466 -27.04655075 68.61810684 C-27.13458289 59.36441236 -26.98340605 53.11102925 -20.375 46.125 C-17.68676021 44.51205613 -15.90503 43.95641542 -12.88671875 43.33203125 C-12.07678467 43.1616333 -11.26685059 42.99123535 -10.43237305 42.81567383 C-9.81531494 42.69087646 -9.19825684 42.5660791 -8.5625 42.4375 C-8.58344727 41.30731445 -8.60439453 40.17712891 -8.62597656 39.01269531 C-8.69842696 34.81588431 -8.74431784 30.61912848 -8.78222656 26.421875 C-8.80233061 24.6060252 -8.82961835 22.79024005 -8.86425781 20.97460938 C-8.91283039 18.36311895 -8.93548027 15.75248502 -8.953125 13.140625 C-8.97377014 12.33006653 -8.99441528 11.51950806 -9.01568604 10.68438721 C-9.01714048 7.02336747 -8.90864418 4.89930973 -6.67895508 1.92456055 C-4.22875537 0.20300484 -2.96873095 -0.0753485 0 0 Z M-9.5625 59.4375 C-9.5625 79.2375 -9.5625 99.0375 -9.5625 119.4375 C-3.6225 119.4375 2.3175 119.4375 8.4375 119.4375 C8.4375 99.6375 8.4375 79.8375 8.4375 59.4375 C2.4975 59.4375 -3.4425 59.4375 -9.5625 59.4375 Z " fill="#000000" transform="translate(256.5625,11.5625)"/>
<path d="M0 0 C2.4375 0.9375 2.4375 0.9375 4 3 C4.62094752 5.99328548 4.87206961 8.94886009 5 12 C6.03125 12.0825 7.0625 12.165 8.125 12.25 C13.64067965 13.3175509 16.63026446 15.29828776 20.14257812 19.66186523 C23.4437285 25.71804855 22.57252084 33.07600679 22.53125 39.78515625 C22.53394804 41.33019759 22.53783305 42.87523727 22.54284668 44.42027283 C22.54872539 47.64891827 22.54023078 50.87711933 22.52148438 54.10571289 C22.49867596 58.2339333 22.51183923 62.36111443 22.53577423 66.48929691 C22.55026033 69.67646553 22.54561382 72.86338956 22.53526306 76.05056572 C22.53260451 77.57233238 22.53583478 79.09412161 22.54518127 80.61586189 C22.55539635 82.74588601 22.53978138 84.8742493 22.51757812 87.00415039 C22.51280457 88.81780846 22.51280457 88.81780846 22.50793457 90.66810608 C21.74482828 95.67384769 19.26784631 98.73215369 15.75 102.25 C12.22125797 104.49556311 9.06922774 105.05328171 5 106 C5.01571045 107.59654419 5.01571045 107.59654419 5.03173828 109.2253418 C5.06802076 113.18559386 5.09093045 117.1458313 5.10986328 121.10620117 C5.11990208 122.81814039 5.13353595 124.53006255 5.15087891 126.24194336 C5.17522073 128.70691142 5.18650438 131.17165215 5.1953125 133.63671875 C5.20563507 134.39836838 5.21595764 135.16001801 5.22659302 135.94474792 C5.22745555 140.05790033 5.027296 143.37369218 3 147 C-0.21436529 149.14291019 -2.17426609 149.30025791 -5.96484375 149.4609375 C-9.08099931 148.75516714 -10.08176416 147.55682497 -12 145 C-12.55673598 142.02252804 -12.46552169 139.09803276 -12.390625 136.078125 C-12.38496521 135.21813904 -12.37930542 134.35815308 -12.37347412 133.47210693 C-12.35111951 130.73083351 -12.30092602 127.99087696 -12.25 125.25 C-12.22993376 123.38934182 -12.21168321 121.52866311 -12.1953125 119.66796875 C-12.15125784 115.11147334 -12.08223754 110.55595978 -12 106 C-12.62254166 105.87107864 -13.24508331 105.74215729 -13.88648987 105.60932922 C-15.10778847 105.34892097 -15.10778847 105.34892097 -16.35375977 105.08325195 C-17.16192642 104.9130806 -17.97009308 104.74290924 -18.80274963 104.56758118 C-21.37837083 103.90226141 -22.98803597 102.99397155 -24.9375 101.1875 C-25.75541016 100.46626953 -25.75541016 100.46626953 -26.58984375 99.73046875 C-29.94647996 95.61138331 -30.25444429 91.45718047 -30.2746582 86.28540039 C-30.27976913 85.63106522 -30.28488007 84.97673004 -30.29014587 84.30256653 C-30.30398631 82.15083537 -30.3030894 79.99942649 -30.30078125 77.84765625 C-30.30467116 76.34459821 -30.30900644 74.84154126 -30.31376648 73.33848572 C-30.32121669 70.19217359 -30.3209461 67.0459737 -30.31567383 63.8996582 C-30.30987989 59.87693478 -30.32681381 55.85467189 -30.3500185 51.83202457 C-30.36478297 48.72897171 -30.36562389 45.62602908 -30.36250877 42.52294731 C-30.3630206 41.04024786 -30.36823217 39.55754201 -30.37832069 38.07487679 C-30.39072148 35.99761538 -30.38387288 33.92124238 -30.37231445 31.84399414 C-30.37294388 30.66438614 -30.3735733 29.48477814 -30.3742218 28.26942444 C-29.66098577 22.0381699 -26.69326408 18.04504838 -21.984375 14.19140625 C-18.6999869 12.21948032 -15.79138544 12.13303107 -12 12 C-12.12375 10.14375 -12.12375 10.14375 -12.25 8.25 C-12.2286346 5.23747924 -12.0939071 4.15651183 -10.5 1.5 C-6.95024525 -0.62985285 -4.03635718 -0.6464802 0 0 Z M-13 29 C-13 48.8 -13 68.6 -13 89 C-7.06 89 -1.12 89 5 89 C5 69.2 5 49.4 5 29 C-0.94 29 -6.88 29 -13 29 Z " fill="#000000" transform="translate(350,12)"/>
<path d="M0 0 C2.68715129 0.45797445 4.09130626 1.29585676 5.90234375 3.32421875 C6.87250575 6.2857659 7.01046735 8.97181361 6.96484375 12.07421875 C6.95582031 12.8734375 6.94679687 13.67265625 6.9375 14.49609375 C6.92589844 15.099375 6.91429687 15.70265625 6.90234375 16.32421875 C7.93359375 16.40671875 8.96484375 16.48921875 10.02734375 16.57421875 C15.54894506 17.64291578 18.5394228 19.62401947 22.04711914 23.99975586 C25.31851723 30.00040363 24.45360125 37.24566877 24.3984375 43.890625 C24.39859267 45.41324431 24.4000846 46.93586402 24.40284729 48.45848083 C24.40422743 51.64006136 24.39173704 54.82118896 24.36889648 58.00268555 C24.34048833 62.07024428 24.34326069 66.13705261 24.3559866 70.20466709 C24.3629576 73.34549819 24.35513877 76.48615734 24.34272957 79.62696648 C24.33823055 81.12639646 24.33786466 82.62584499 24.34179497 84.12527657 C24.34472195 86.22395498 24.32813245 88.32161651 24.30639648 90.42016602 C24.3009935 91.6115065 24.29559052 92.80284698 24.2900238 94.0302887 C23.7798402 98.36507225 22.36145413 101.7611514 19.3671875 104.96875 C14.74449593 108.50374944 12.71505332 109.450582 6.90234375 109.32421875 C6.9180542 110.78444458 6.9180542 110.78444458 6.93408203 112.27416992 C6.97038581 115.8989695 6.99328185 119.52375311 7.01220703 123.14868164 C7.02224101 124.71511542 7.03587129 126.28153058 7.05322266 127.84790039 C7.077586 130.10437628 7.08885291 132.36060369 7.09765625 134.6171875 C7.10797882 135.31321579 7.11830139 136.00924408 7.12893677 136.72636414 C7.12984473 140.695144 6.82459856 143.81871917 4.90234375 147.32421875 C1.68797846 149.46712894 -0.27192234 149.62447666 -4.0625 149.78515625 C-7.15127851 149.08558645 -8.18120865 147.83722879 -10.09765625 145.32421875 C-10.44675675 142.43456755 -10.56581245 139.93829165 -10.48828125 137.05859375 C-10.48262146 136.26519592 -10.47696167 135.4717981 -10.47113037 134.65435791 C-10.44878772 132.12702402 -10.39859801 129.6011221 -10.34765625 127.07421875 C-10.32758839 125.35809343 -10.30933812 123.64194583 -10.29296875 121.92578125 C-10.2489302 117.72471095 -10.17991951 113.5247074 -10.09765625 109.32421875 C-11.18820313 109.35515625 -12.27875 109.38609375 -13.40234375 109.41796875 C-18.02176511 109.30077413 -19.62699197 108.34218769 -23.09765625 105.32421875 C-29.3769574 98.57498491 -28.81395808 90.60875216 -28.7265625 81.94921875 C-28.72739264 80.45523913 -28.7298575 78.96125962 -28.73387146 77.46728516 C-28.73671887 74.34704868 -28.72213354 71.22753421 -28.69458008 68.10742188 C-28.660498 64.12622847 -28.66652499 60.14632476 -28.68524265 56.16506958 C-28.69585758 53.08330713 -28.68683445 50.00184004 -28.67185783 46.92010498 C-28.66670839 45.45303222 -28.66711812 43.9859282 -28.67340279 42.51885986 C-28.69461978 34.59162695 -28.63029211 28.09494393 -24.09765625 21.32421875 C-19.59792142 17.33581743 -15.89391958 16.72396105 -10.09765625 16.32421875 C-10.1440625 15.504375 -10.19046875 14.68453125 -10.23828125 13.83984375 C-10.29242188 12.22335938 -10.29242188 12.22335938 -10.34765625 10.57421875 C-10.3940625 9.506875 -10.44046875 8.43953125 -10.48828125 7.33984375 C-10.09765625 4.32421875 -10.09765625 4.32421875 -8.33203125 1.9609375 C-5.33168449 -0.23686896 -3.59636993 -0.19421737 0 0 Z M-11.09765625 33.32421875 C-11.12021148 40.99958852 -11.13857378 48.67494604 -11.14946842 56.35034084 C-11.1546962 59.91399297 -11.16179194 63.47762132 -11.1730957 67.04125977 C-11.18599801 71.13427972 -11.19088531 75.22727455 -11.1953125 79.3203125 C-11.20047379 80.60570419 -11.20563507 81.89109589 -11.21095276 83.21543884 C-11.21102829 84.39658768 -11.21110382 85.57773651 -11.21118164 86.79467773 C-11.21340225 87.84058578 -11.21562286 88.88649384 -11.21791077 89.96409607 C-11.3641661 92.2811117 -11.3641661 92.2811117 -10.09765625 93.32421875 C-7.42034245 93.42403089 -4.7746145 93.4630175 -2.09765625 93.44921875 C-0.97230469 93.45501953 -0.97230469 93.45501953 0.17578125 93.4609375 C3.83840492 93.80097416 3.83840492 93.80097416 6.90234375 92.32421875 C6.99615677 90.48303846 7.01978329 88.63824234 7.01586914 86.79467773 C7.01579361 85.6135289 7.01571808 84.43238007 7.01564026 83.21543884 C7.01047897 81.93004715 7.00531769 80.64465546 7 79.3203125 C6.99787758 77.35808495 6.99787758 77.35808495 6.99571228 75.35621643 C6.99188785 71.87259016 6.98205821 68.38900536 6.9710083 64.90539551 C6.96079257 61.35295167 6.95621431 57.80050116 6.95117188 54.24804688 C6.94043587 47.27341871 6.92283968 40.29882499 6.90234375 33.32421875 C0.96234375 33.32421875 -4.97765625 33.32421875 -11.09765625 33.32421875 Z " fill="#000000" transform="translate(168.09765625,11.67578125)"/>
</svg>
