<?xml version="1.0" encoding="UTF-8"?>
<svg version="1.1" xmlns="http://www.w3.org/2000/svg" width="512" height="512">
<path d="M0 0 C1.19011084 -0.00445784 2.38022169 -0.00891569 3.6063965 -0.01350862 C4.92037862 -0.01332426 6.23436075 -0.01313989 7.58816051 -0.01294994 C8.99303148 -0.01624867 10.39790151 -0.01997426 11.80277032 -0.02409142 C15.67234669 -0.03411827 19.54190756 -0.03782931 23.41149509 -0.04048073 C27.58133694 -0.04438168 31.75116648 -0.05396007 35.92100048 -0.0626936 C45.99476042 -0.08246252 56.06852138 -0.09252414 66.14229587 -0.10142139 C70.88391723 -0.10580303 75.62553746 -0.11117011 80.36715794 -0.11641026 C96.12485332 -0.13342192 111.882548 -0.1479172 127.64025116 -0.155159 C131.73008061 -0.15706895 135.81991006 -0.15898927 139.90973949 -0.16094494 C141.4345334 -0.16167055 141.4345334 -0.16167055 142.99013122 -0.16241082 C159.46586451 -0.1707153 175.94152528 -0.19605954 192.41722689 -0.22852562 C209.32459784 -0.26157133 226.23193191 -0.27960545 243.13933533 -0.28280324 C252.63546888 -0.2849705 262.13149665 -0.29375079 271.62759876 -0.31926441 C279.71294213 -0.34093733 287.79815403 -0.34903863 295.88352314 -0.33929763 C300.00985805 -0.33474318 304.1359215 -0.33670532 308.26221943 -0.35605907 C312.03928228 -0.37362209 315.81587429 -0.37274942 319.59294166 -0.35716178 C321.60750198 -0.35364411 323.62206684 -0.36986299 325.63655931 -0.38676625 C333.47420819 -0.33062458 337.31960562 0.24581884 342.96662426 5.73187733 C346.85355936 10.60679593 347.44707874 13.66067986 347.45339489 19.80321217 C347.45656846 20.82530402 347.45656846 20.82530402 347.45980614 21.8680442 C347.4658089 24.15689981 347.46480575 26.44570033 347.46393871 28.73456287 C347.46697032 30.3740495 347.47049177 32.01353529 347.47446728 33.65301991 C347.48236126 37.18884023 347.48750329 40.72465044 347.49075794 44.26047802 C347.49667441 49.86456723 347.51322446 55.46859312 347.53209972 61.07265186 C347.53843765 62.99326702 347.54476327 64.91388222 347.55107689 66.83449745 C347.5542427 67.79660027 347.55740851 68.75870309 347.56067026 69.74996054 C347.60267741 82.79576046 347.6356732 95.84153194 347.64802074 108.88739491 C347.65643434 117.6864235 347.67905211 126.48529616 347.71737641 135.28424674 C347.73703776 139.93493562 347.74957517 144.58539194 347.74454212 149.23612499 C347.73985259 153.62343704 347.75393266 158.01031057 347.78155422 162.39753437 C347.78839619 163.99529614 347.78866938 165.59310394 347.78135395 167.19086361 C347.73641334 178.12320064 349.22711565 187.62305768 352.32209301 198.13422108 C352.7448273 199.62036679 352.7448273 199.62036679 353.17610168 201.13653564 C353.8575436 203.51214251 354.57384626 205.87428728 355.30256176 208.23578358 C355.56088284 209.08675617 355.81920391 209.93772877 356.0853529 210.81448841 C356.8897314 213.46387763 357.69900154 216.11172672 358.50959301 218.75922108 C359.59073474 222.29177773 360.66684362 225.82581275 361.74006176 229.36078358 C361.98483761 230.15457417 362.22961346 230.94836475 362.48180676 231.7662096 C365.73479413 242.48341661 365.73479413 242.48341661 364.63459301 246.88422108 C363.05710128 249.58849262 362.34270947 250.31783825 359.32209301 251.13422108 C353.66184192 250.62124261 348.64845198 249.07163625 343.31818676 247.22797108 C342.05592014 246.80082813 342.05592014 246.80082813 340.76815319 246.36505604 C338.09662975 245.46055021 335.42789832 244.54817292 332.75959301 243.63422108 C330.08754804 242.72080442 327.41492587 241.80928185 324.74032116 240.90338612 C323.08150676 240.34141503 321.4241416 239.77514191 319.76848888 239.20392323 C319.01072659 238.94695667 318.25296429 238.68999012 317.47223949 238.4252367 C316.81384579 238.19952991 316.15545208 237.97382313 315.47710705 237.74127674 C309.10660725 235.9467418 302.83421548 235.96541085 296.26789379 235.92889881 C295.16486416 235.91899921 294.06183453 235.90909962 292.92537975 235.89890003 C289.28940997 235.86738154 285.65342713 235.84256574 282.01740551 235.81781483 C279.49248959 235.79723697 276.96757706 235.77624028 274.44266796 235.7548418 C268.48238396 235.70533857 262.52207744 235.66005108 256.56174552 235.61681944 C249.77331286 235.56734514 242.98492723 235.51246499 236.19654012 235.45713985 C222.23843502 235.34350239 208.28028473 235.23662403 194.32209301 235.13422108 C194.26259472 235.73881657 194.20309643 236.34341206 194.14179516 236.96632862 C194.05885204 237.76656956 193.97590893 238.56681049 193.89045238 239.39130116 C193.77026745 240.57663189 193.77026745 240.57663189 193.64765453 241.7859087 C193.15835509 245.31528134 192.09574719 248.50617016 190.82209301 251.82172108 C190.43114452 252.84592152 190.43114452 252.84592152 190.03229809 253.89081287 C182.11606226 273.61864761 166.14735768 289.35774484 151.32209301 304.13422108 C152.92702869 304.14635136 152.92702869 304.14635136 154.56438732 304.15872669 C164.67167872 304.2363749 174.7788386 304.32416075 184.88595772 304.42174816 C190.08152083 304.47159048 195.2770648 304.51792127 200.47272778 304.55609608 C205.49137528 304.59310166 210.50985773 304.63950234 215.52836323 304.69228458 C217.43837162 304.71074763 219.34841529 304.7258851 221.25847721 304.73756504 C223.94383376 304.75456669 226.62881891 304.78363383 229.31403637 304.81537342 C230.48577152 304.8186137 230.48577152 304.8186137 231.68117809 304.82191944 C241.67070984 304.97172796 249.86584826 307.02787579 257.27131176 313.95843983 C264.17221258 321.32229416 265.92253824 327.8284667 265.67756176 337.87250233 C265.00999282 343.99799752 263.08541737 349.07700933 259.07209301 353.75922108 C258.49459301 354.21297108 257.91709301 354.66672108 257.32209301 355.13422108 C259.13946674 358.84504465 261.16008247 362.42184052 263.20099926 366.01312733 C266.52741294 372.30665564 266.3507719 380.22204334 264.56818676 387.00140858 C262.71139894 391.79264931 260.36580678 396.00346668 257.32209301 400.13422108 C257.73201488 400.7142992 258.14193676 401.29437733 258.56428051 401.89203358 C259.10310863 402.67320545 259.64193676 403.45437733 260.19709301 404.25922108 C260.73076488 405.0249242 261.26443676 405.79062733 261.81428051 406.57953358 C266.12946247 413.89074861 266.75370029 422.51066194 264.66974926 430.69672108 C261.42735854 438.71224492 256.03062747 444.91421471 248.11896801 448.44281483 C243.84118547 450.08883115 240.15783901 450.25162509 235.63459301 450.19672108 C234.93269848 450.19220936 234.23080395 450.18769764 233.50763988 450.1830492 C231.77908763 450.17129034 230.05057935 450.15335561 228.32209301 450.13422108 C228.53865551 450.64468983 228.75521801 451.15515858 228.97834301 451.68109608 C232.00083918 459.57316941 232.96190962 467.87842954 229.75959301 475.88422108 C225.30183953 484.45801872 219.38301653 489.74001661 210.32209301 493.13422108 C205.33668658 494.48048894 200.29827546 494.30432613 195.17365551 494.32709217 C193.6430801 494.33935841 193.6430801 494.33935841 192.08158398 494.35187244 C188.70342613 494.37668225 185.32531056 494.39324193 181.94709301 494.40765858 C180.7863728 494.41298225 179.62565258 494.41830593 178.42975903 494.42379093 C172.27180677 494.45051852 166.11387464 494.46988447 159.95588207 494.48431873 C154.89514845 494.49758748 149.83482479 494.5253098 144.77424145 494.56634998 C138.63459574 494.61612905 132.49531807 494.64049619 126.35547924 494.64754581 C124.03386446 494.65419041 121.71225566 494.66923069 119.39075756 494.69343662 C92.5828379 494.9567422 67.99175589 490.07807097 47.17365551 472.10297108 C45.32209301 470.13422108 45.32209301 470.13422108 44.31257153 468.38983631 C42.05719194 464.52354459 42.05719194 464.52354459 38.23615551 462.47650623 C35.80405809 462.22223228 33.45439448 462.1639179 31.00959301 462.19672108 C30.17363598 462.1806078 29.33767895 462.16449451 28.47638988 462.14789295 C26.4252539 462.11273062 24.37347617 462.11930967 22.32209301 462.13422108 C22.38010082 463.38718983 22.43810863 464.64015858 22.49787426 465.93109608 C22.54477779 467.58210048 22.59027732 469.23314519 22.63459301 470.88422108 C22.67648754 471.70922108 22.71838207 472.53422108 22.76154613 473.38422108 C22.77765942 474.18343983 22.7937727 474.98265858 22.81037426 475.80609608 C22.83655834 476.53925037 22.86274242 477.27240467 22.88971996 478.02777576 C21.98726764 481.37674721 20.22008436 482.30761457 17.32209301 484.13422108 C14.39612028 484.70291376 11.52936221 484.66094542 8.55622387 484.62006092 C7.68409756 484.62385761 6.81197124 484.6276543 5.91341686 484.63156605 C3.03755486 484.63896104 0.1627086 484.61760553 -2.71306324 484.59515858 C-4.71415558 484.59277361 -6.71525018 484.59186894 -8.71634388 484.59238148 C-12.90688088 484.58925537 -17.0970753 484.57270328 -21.28752613 484.54584217 C-26.66004899 484.51184079 -32.03219591 484.50421435 -37.40481377 484.50573254 C-41.53548238 484.50518884 -45.66606875 484.49422202 -49.79671001 484.47972965 C-51.77786035 484.4733642 -53.75902001 484.46942335 -55.74018002 484.46794224 C-58.50742582 484.46360782 -61.27427233 484.44610434 -64.04143238 484.42474842 C-64.86076252 484.42565479 -65.68009266 484.42656116 -66.52425098 484.427495 C-73.97224732 484.34340864 -73.97224732 484.34340864 -76.67790699 482.13422108 C-79.1265373 477.56555979 -78.95860872 473.22167067 -78.93187428 468.17657948 C-78.93499426 467.27337011 -78.93811424 466.37016074 -78.94132876 465.43958139 C-78.94930707 462.41259806 -78.94298572 459.38581529 -78.93669605 456.35883045 C-78.93940598 454.18889212 -78.94296693 452.01895471 -78.94731617 449.84901905 C-78.95644214 443.9545164 -78.95289503 438.06008368 -78.946558 432.1655798 C-78.94149911 426.00062463 -78.94618915 419.8356755 -78.94933033 413.6707201 C-78.95297029 403.31723422 -78.94817007 392.96377685 -78.93864918 382.6102953 C-78.92776458 370.63546402 -78.93129013 358.66073371 -78.94230199 346.68590212 C-78.95137399 336.4097938 -78.95266056 326.133706 -78.94742465 315.85759497 C-78.94430448 309.71783329 -78.94389693 303.57810363 -78.95049763 297.438344 C-78.95626916 291.66653405 -78.95227764 285.89481203 -78.94070911 280.12301159 C-78.93806151 278.00298363 -78.93882932 275.88294828 -78.94323444 273.76292324 C-78.94868729 270.87246936 -78.94185879 267.98229846 -78.93187428 265.09186268 C-78.93856644 263.82897553 -78.93856644 263.82897553 -78.9453938 262.5405755 C-78.91699619 258.31154539 -78.7247918 254.95330448 -76.67790699 251.13422108 C-73.10930995 248.22043991 -68.42597189 248.8388434 -64.04143238 248.84369373 C-63.17105839 248.83697651 -62.30068439 248.83025928 -61.40393543 248.82333851 C-58.52775325 248.80434587 -55.65180422 248.80043385 -52.77556324 248.79828358 C-50.77543511 248.79185715 -48.77530792 248.78512891 -46.77518177 248.77811146 C-42.58298532 248.76613597 -38.39087129 248.76243098 -34.19865894 248.76361561 C-28.82720275 248.76381895 -23.45627472 248.73650182 -18.08494377 248.70207119 C-13.95424439 248.67983441 -9.82367284 248.67577706 -5.69291973 248.67683506 C-3.71257104 248.67447482 -1.73221905 248.66562756 0.24807072 248.65017033 C3.01783175 248.63057311 5.78644433 248.63632335 8.55622387 248.64838123 C9.37352978 248.63714222 10.19083569 248.62590321 11.03290844 248.61432362 C14.98157789 248.65800341 16.89851442 248.87046605 20.33448315 251.00998402 C22.79021545 253.63452199 22.91348131 254.79046367 22.81037426 258.33734608 C22.79426098 259.31703358 22.7781477 260.29672108 22.76154613 261.30609608 C22.7196516 262.32187733 22.67775707 263.33765858 22.63459301 264.38422108 C22.61203442 265.41547108 22.58947582 266.44672108 22.56623363 267.50922108 C22.50736464 270.05236173 22.42519366 272.5925522 22.32209301 275.13422108 C47.66632755 275.23018978 47.66632755 275.23018978 72.32209301 270.13422108 C73.02785473 269.8996117 73.73361645 269.66500233 74.46076488 269.42328358 C92.70976488 263.10694816 110.28429992 251.32593272 122.32209301 236.13422108 C121.66886783 236.13275452 121.01564264 236.13128796 120.34262276 236.12977695 C104.43406818 236.09269421 88.52576845 236.03366027 72.6173954 235.95031834 C64.92414986 235.91054147 57.23100641 235.87814217 49.53766918 235.86322498 C42.83063925 235.85020138 36.12383408 235.82321887 29.41693074 235.77960801 C25.86698142 235.7570088 22.31730916 235.74130945 18.76728153 235.74233723 C14.80021347 235.74322382 10.83371005 235.71294034 6.86677074 235.68011951 C5.69504314 235.68514988 4.52331554 235.69018024 3.31608105 235.69536304 C-3.23664098 235.61146474 -7.35260322 235.05425033 -12.67790699 231.13422108 C-14.42009449 229.31781483 -14.42009449 229.31781483 -15.55290699 227.57172108 C-15.94220387 226.99293201 -16.33150074 226.41414295 -16.73259449 225.81781483 C-19.06568871 221.66259331 -18.82615304 217.58248463 -18.82507801 212.96877003 C-18.8287547 212.12655594 -18.83243139 211.28434185 -18.83621949 210.41660613 C-18.84726531 207.58394627 -18.8511017 204.75132309 -18.85490894 201.91864491 C-18.86117293 199.89179842 -18.86781967 197.86495309 -18.87482166 195.83810902 C-18.89223766 190.32346657 -18.90278515 184.8088328 -18.91102719 179.29416966 C-18.91617628 175.84925228 -18.92225207 172.40433759 -18.92853832 168.95942211 C-18.94759243 158.18245439 -18.96182288 147.40549353 -18.97015029 136.6285122 C-18.97992327 124.18590043 -19.00624356 111.74346654 -19.04665118 99.30091745 C-19.07680651 89.68552334 -19.09161863 80.07018023 -19.0949313 70.45473975 C-19.09728251 64.71105353 -19.1062523 58.96755729 -19.13139248 53.22392178 C-19.15466774 47.81895558 -19.15890849 42.41430451 -19.1486311 37.00930119 C-19.14813549 35.02759026 -19.15446317 33.04586386 -19.16818714 31.0642004 C-19.18590374 28.35395374 -19.17880111 25.6448383 -19.16565418 22.93459034 C-19.17662343 22.15451313 -19.18759267 21.37443593 -19.19889432 20.57072002 C-19.12734466 14.44092599 -17.48511965 9.10090214 -13.19519311 4.56727916 C-8.84298595 0.79148152 -5.61461816 0.00973561 0 0 Z M-3.67790699 17.13422108 C-4.0786792 19.9207594 -4.21810795 22.31642263 -4.18584156 25.10553455 C-4.19208152 25.92677516 -4.19832149 26.74801576 -4.20475054 27.59414244 C-4.22075102 30.35583783 -4.20804901 33.11665921 -4.19548512 35.8783617 C-4.20090311 37.8542123 -4.20802394 39.83005885 -4.21672535 41.80589771 C-4.23500001 47.17981732 -4.22787405 52.55343063 -4.21520901 57.92735577 C-4.20510279 63.5433979 -4.21446806 69.15941329 -4.22075367 74.77545643 C-4.22803702 84.20775545 -4.21842433 93.63992932 -4.19939137 103.07220936 C-4.17762137 113.9871497 -4.18467225 124.9017912 -4.20669699 135.8167243 C-4.22483139 145.17728981 -4.2274189 154.53776521 -4.21694231 163.89834261 C-4.2106966 169.49372699 -4.20990131 175.08897077 -4.22308826 180.6843462 C-4.23461763 185.94406957 -4.22667438 191.20340654 -4.20351124 196.46308804 C-4.19820854 198.39689269 -4.19976444 200.33072969 -4.2085619 202.2645216 C-4.2194396 204.89776041 -4.20584886 207.52974917 -4.18584156 210.1629076 C-4.19476445 210.93420332 -4.20368733 211.70549905 -4.21288061 212.50016737 C-4.16562588 215.6907394 -4.10932575 217.62969178 -1.99429131 220.10315132 C0.78930788 221.34218792 2.84367735 221.54688979 5.89217663 221.60265064 C7.02610348 221.62989719 8.16003033 221.65714375 9.3283186 221.68521595 C10.56835644 221.69956684 11.80839428 221.71391773 13.08600903 221.7287035 C14.39540951 221.75484226 15.70480999 221.78098103 17.05388927 221.80791187 C21.39437875 221.89157839 25.73498061 221.94261164 30.07599926 221.98968983 C30.81593333 221.9982847 31.5558674 222.00687958 32.31822371 222.01573491 C39.30445427 222.09681641 46.29069668 222.16742512 53.2772789 222.20960999 C62.19438891 222.26392825 71.10709008 222.37207098 80.02250057 222.55584925 C86.30209616 222.68085276 92.58051496 222.74385154 98.86131901 222.761648 C102.60782571 222.77386879 106.34952958 222.81246415 110.09467793 222.91759777 C125.01267261 223.97356228 125.01267261 223.97356228 138.62988186 219.57097912 C142.2680399 215.90020849 144.5253169 211.79440876 146.48840427 207.04978275 C147.66248982 204.35209334 149.28579548 202.04650592 150.99396801 199.66156483 C152.54354072 197.35258614 154.09108958 195.04293912 155.62287426 192.7221117 C163.4993391 181.04559803 163.4993391 181.04559803 169.32209301 178.13422108 C171.52912426 177.86078358 171.52912426 177.86078358 174.13459301 177.75922108 C174.98666332 177.7102367 175.83873363 177.66125233 176.71662426 177.61078358 C180.51054681 178.37298091 181.89005816 180.18447583 184.32209301 183.13422108 C190.78845121 194.77366584 193.74651156 208.02790025 195.32209301 221.13422108 C195.91473068 221.13107867 196.50736835 221.12793627 197.11796474 221.12469864 C211.68194179 221.05063868 226.24541309 221.02788123 240.80952358 221.05906296 C247.85338473 221.07296468 254.89649326 221.07083621 261.94025707 221.02801991 C268.09501677 220.99065143 274.24885814 220.98635986 280.40366054 221.01839167 C283.64920122 221.03421704 286.892685 221.03085366 290.13814068 220.99745464 C308.71179746 220.82066337 323.74661163 223.80340328 340.98468685 230.32546806 C343.22487492 231.24321591 343.22487492 231.24321591 345.32209301 231.13422108 C344.32100133 225.20793473 342.90488746 219.45180866 341.19318676 213.69281483 C340.99770245 213.03504047 340.80221813 212.37726612 340.60081005 211.69955921 C339.7843836 208.96730476 338.96167739 206.23701718 338.13288403 203.50848866 C337.52125454 201.48854923 336.91927386 199.46591243 336.31818676 197.44281483 C335.95910229 196.25486317 335.60001781 195.06691151 335.23005199 193.84296131 C332.91346624 184.38040302 333.15917012 174.76699533 333.13263988 165.08954334 C333.12468576 163.47571572 333.1162969 161.8618902 333.10750866 160.2480669 C333.0895371 156.78926744 333.07449206 153.33047232 333.06173229 149.87164974 C333.0414281 144.40534592 333.01379166 138.93909397 332.98505688 133.47282887 C332.92003034 120.89322377 332.8643653 108.31358065 332.80906963 95.73392963 C332.75823159 84.18185397 332.70541657 72.62979743 332.64454412 61.0777697 C332.61617011 55.63994383 332.59258518 50.20212432 332.57261944 44.76426136 C332.55926315 41.39136687 332.54185073 38.01850234 332.52330875 34.64563274 C332.51553387 33.07745461 332.50947257 31.50926695 332.50521564 29.94107533 C332.49919529 27.80741291 332.48716054 25.67386788 332.47358227 23.5402422 C332.46842854 22.34438275 332.4632748 21.14852331 332.4579649 19.9164257 C332.51153498 17.17722756 332.51153498 17.17722756 331.32209301 15.13422108 C328.22157001 14.10071341 326.09211417 14.00687328 322.84162521 14.00279331 C321.69556511 13.99895217 320.54950502 13.99511102 319.36871582 13.99115348 C318.10395178 13.99201996 316.83918775 13.99288644 315.53609753 13.99377918 C314.18342375 13.99119609 312.83075074 13.98818309 311.47807878 13.98477578 C307.75285924 13.9766962 304.02765896 13.97491568 300.3024317 13.97417831 C296.28805022 13.97232947 292.27367878 13.96478308 288.25930309 13.9580431 C279.47850185 13.94445335 270.69770516 13.93843431 261.91689515 13.93403244 C256.43710149 13.9312716 250.9573096 13.92703459 245.47751713 13.92252827 C230.31343891 13.91033571 215.1493621 13.90003575 199.98527908 13.89665318 C199.0145142 13.89643361 198.04374932 13.89621404 197.04356733 13.89598782 C196.07045052 13.89576955 195.09733372 13.89555127 194.09472853 13.89532638 C192.12274651 13.89488291 190.15076448 13.89443634 188.17878246 13.8939867 C187.20060656 13.89376527 186.22243067 13.89354384 185.21461307 13.8933157 C169.35509546 13.8893654 153.49562372 13.87190426 137.63612384 13.84862718 C121.36382915 13.82493641 105.09155751 13.8124524 88.81924528 13.81128526 C79.67866482 13.81036731 70.53814417 13.80458494 61.39758015 13.78646564 C53.61632056 13.77109545 45.83513928 13.76592597 38.05386741 13.77420375 C34.08174435 13.77812098 30.10977911 13.77712864 26.13767529 13.7631464 C22.50387918 13.75047162 18.87036053 13.75154787 15.23656517 13.76373711 C13.29410369 13.76664018 11.3516377 13.75470994 9.4092136 13.74231505 C7.68621183 13.75219982 7.68621183 13.75219982 5.92840195 13.76228428 C4.9351609 13.76168719 3.94191985 13.7610901 2.91858059 13.76047492 C-0.13824543 14.20048356 -1.5119045 14.94962737 -3.67790699 17.13422108 Z M172.32209301 194.13422108 C171.27519746 195.54709827 170.27560834 196.99503787 169.29474926 198.45453358 C168.67229321 199.37581043 168.04983715 200.29708729 167.40851879 201.24628162 C166.74062328 202.24055164 166.07272778 203.23482166 165.38459301 204.25922108 C164.00933808 206.28987857 162.63303574 208.3198271 161.25568676 210.34906483 C160.58134594 211.34277088 159.90700512 212.33647694 159.21222973 213.3602953 C150.11349335 226.7134137 140.33649227 239.28629971 129.32209301 251.13422108 C128.69947582 251.81097889 128.07685863 252.4877367 127.43537426 253.18500233 C98.14306531 283.82831924 63.51399805 288.88598153 22.32209301 290.13422108 C22.32209301 341.94422108 22.32209301 393.75422108 22.32209301 447.13422108 C30.57209301 447.46422108 38.82209301 447.79422108 47.32209301 448.13422108 C50.0439851 450.85611317 52.0094447 452.95929641 54.13459301 456.00922108 C63.92830876 469.05146662 80.96114907 475.95551375 96.68122387 478.72629261 C108.27317501 480.31319408 119.69972439 480.37259 131.38459301 480.25140858 C133.47248084 480.23534478 135.56037158 480.21965567 137.64826488 480.20431995 C141.99163326 480.16959871 146.33481747 480.12632297 150.67805004 480.07758045 C156.23023483 480.01654721 161.7822061 479.9835117 167.33465099 479.95752239 C171.63287055 479.93324891 175.93077805 479.8910456 180.22880077 479.8437891 C182.27637712 479.82400996 184.3240242 479.81047828 186.37168407 479.80346775 C189.23070581 479.79163313 192.08839165 479.75479983 194.94709301 479.7118578 C195.78151424 479.71374607 196.61593548 479.71563435 197.4756422 479.71757984 C203.11332246 479.59724403 207.66518609 478.43040706 212.32209301 475.13422108 C215.1136109 471.97424367 216.22438425 468.8181824 216.82209301 464.63422108 C216.2221002 460.43427138 215.08901636 457.32513665 212.32209301 454.13422108 C204.93007207 449.0573337 197.14672502 449.59658651 188.50959301 449.63422108 C185.71073491 449.64626463 182.91375408 449.63264586 180.11506176 449.60297108 C178.26690868 449.60973866 178.26690868 449.60973866 176.38141918 449.61664295 C173.32209301 449.13422108 173.32209301 449.13422108 171.39362621 447.3314867 C169.75255256 443.96633225 170.34103241 441.66603922 171.32209301 438.13422108 C174.60138399 435.77871982 177.72058743 435.8778884 181.66364574 435.86298084 C183.59100819 435.84770092 183.59100819 435.84770092 185.55730724 435.83211231 C186.5832515 435.83070083 186.5832515 435.83070083 187.62992191 435.82926083 C189.77831621 435.82558865 191.9262524 435.8088397 194.07454967 435.78850269 C200.18082179 435.73316971 206.28716072 435.70241256 212.39362621 435.67792225 C216.13312624 435.66202285 219.8722998 435.63178104 223.61163044 435.59315777 C225.0337079 435.58153044 226.4558438 435.57557762 227.87796879 435.57547665 C229.8690738 435.575284 231.86014747 435.55547404 233.85114574 435.53485584 C234.98269588 435.52978519 236.11424603 435.52471455 237.28008556 435.51949024 C242.51889086 434.85599741 245.91141849 432.03213481 249.32209301 428.13422108 C250.56409149 424.40822564 250.85717856 421.0044289 250.32209301 417.13422108 C247.62664436 412.03212186 244.80066191 408.96041071 239.32209301 407.13422108 C237.17622852 407.02651688 235.02722889 406.97803646 232.87873363 406.96063709 C232.22962521 406.95395008 231.58051678 406.94726307 230.9117384 406.94037342 C229.50400182 406.92633917 228.09624271 406.91443995 226.68847179 406.90442562 C224.46099655 406.88799941 222.23368894 406.86476252 220.00629711 406.83952808 C213.67398468 406.76878619 207.34160522 406.70856731 201.00910473 406.65741444 C197.13465316 406.62564023 193.26039705 406.58437344 189.38610363 406.53721905 C187.90934286 406.52119493 186.43253711 406.50887524 184.95571423 406.50031185 C182.89209131 406.48817029 180.82892911 406.46402772 178.76545238 406.43719959 C177.59091503 406.42689213 176.41637768 406.41658466 175.20624828 406.40596485 C172.32209301 406.13422108 172.32209301 406.13422108 169.32209301 404.13422108 C168.65102736 397.08803179 168.65102736 397.08803179 170.44726086 394.53497791 C173.19032187 392.485535 175.31932782 392.75544612 178.71784496 392.74945545 C179.36213451 392.74408268 180.00642406 392.73870991 180.67023754 392.73317432 C182.06813402 392.72339781 183.46609117 392.72045182 184.86401844 392.72353077 C187.079926 392.7280106 189.29503557 392.71400365 191.51085949 392.69513416 C196.21875756 392.6583401 200.92657235 392.64464819 205.63459301 392.63422108 C211.08106613 392.62212892 216.52715137 392.60048139 221.97345066 392.55421925 C224.15047507 392.54068799 226.32700438 392.5448135 228.50405407 392.54962635 C229.8487615 392.54027976 231.19346355 392.53010944 232.53815746 392.5189867 C233.70603298 392.51693226 234.8739085 392.51487782 236.07717419 392.51276112 C241.0545903 391.93211445 244.28932795 390.27863641 247.63459301 386.57172108 C250.46905509 382.47749807 251.00125715 379.06275003 250.32209301 374.13422108 C247.78788713 369.50274137 245.39111616 365.82389546 240.32209301 364.13422108 C238.18163013 364.02153108 236.03790747 363.96768814 233.89460278 363.94476795 C233.24710064 363.93647465 232.5995985 363.92818134 231.93247509 363.91963673 C230.52802039 363.90225674 229.12353703 363.88708433 227.71903706 363.87386036 C225.49549538 363.85280056 223.27209697 363.82577981 221.04864025 363.79718494 C216.32734645 363.73753375 211.60598564 363.68536351 206.88459301 363.63422108 C201.41665567 363.57494391 195.94878905 363.51260156 190.48098087 363.4423418 C188.29185677 363.4158147 186.10272533 363.39497095 183.91353893 363.37433338 C182.56868175 363.35772506 181.22382779 363.34085275 179.87897778 363.3236742 C178.70666103 363.31114613 177.53434429 363.29861805 176.3265028 363.28571033 C173.8095918 363.15880189 171.71817168 362.86977113 169.32209301 362.13422108 C169.26813823 360.50958266 169.22932106 358.88443567 169.19709301 357.25922108 C169.17388988 356.3542992 169.15068676 355.44937733 169.12678051 354.51703358 C169.32209301 352.13422108 169.32209301 352.13422108 171.32209301 350.13422108 C174.05234814 349.88266468 174.05234814 349.88266468 177.57258129 349.87884998 C178.88799908 349.87189106 180.20341686 349.86493214 181.55869579 349.85776234 C182.26438828 349.85844337 182.97008076 349.85912441 183.69715786 349.85982609 C185.90922552 349.86079091 188.12080658 349.84785206 190.33280468 349.83084583 C196.62281463 349.7845796 202.91277823 349.75999708 209.20295238 349.7533617 C213.05044499 349.7483243 216.89743556 349.72395468 220.74475765 349.68803501 C222.2062264 349.67828057 223.66776465 349.67588117 225.12925625 349.6812067 C233.07028138 349.70876548 239.51994104 349.64341837 246.32209301 345.13422108 C249.29852619 341.96575995 250.21687434 339.22849527 250.63459301 334.88422108 C250.27004836 330.50968525 249.21403508 327.40700491 246.32209301 324.13422108 C240.85622489 320.26969864 235.64996445 319.55798642 229.11139965 319.63593006 C228.22735958 319.63041126 227.34331951 319.62489246 226.43249035 319.61920643 C224.52612108 319.60992992 222.61968983 319.60974505 220.71331501 319.61780071 C217.68964605 319.63049367 214.66688157 319.61908281 211.64324474 319.60176563 C206.31199798 319.57512003 200.98097484 319.56946774 195.64966869 319.57086658 C187.12139242 319.57309849 178.59339316 319.55882948 170.06522465 319.51528072 C167.09780518 319.50548988 164.13082685 319.51413499 161.16341686 319.52397633 C159.32966867 319.51782794 157.49592283 319.51091482 155.6621809 319.50311756 C154.43916775 319.51469646 154.43916775 319.51469646 153.19144726 319.52650928 C147.12382083 319.47359749 140.36797015 318.79359491 135.62810898 314.65519333 C133.64879185 312.35010174 133.31701524 311.09190635 132.94709301 308.00922108 C134.02256264 296.89603493 145.21880699 288.15985514 152.75959301 280.82172108 C169.01999186 264.67503131 180.53803806 245.76099583 180.64557934 222.36957264 C180.50267697 212.27924653 178.05467318 203.08408615 173.32209301 194.13422108 C172.99209301 194.13422108 172.66209301 194.13422108 172.32209301 194.13422108 Z M-63.67790699 264.13422108 C-63.67790699 331.78422108 -63.67790699 399.43422108 -63.67790699 469.13422108 C-40.24790699 469.13422108 -16.81790699 469.13422108 7.32209301 469.13422108 C7.32209301 401.48422108 7.32209301 333.83422108 7.32209301 264.13422108 C-16.10790699 264.13422108 -39.53790699 264.13422108 -63.67790699 264.13422108 Z " fill="#000000" transform="translate(112.67790699005127,8.865778923034668)"/>
<path d="M0 0 C4.17458611 0.67091562 4.91657916 1.29575986 7.5 4.5625 C8.74443704 7.29498957 9.62977705 10.11063376 10.515625 12.9765625 C10.90666412 14.19283829 10.90666412 14.19283829 11.30560303 15.4336853 C12.13192409 18.01478121 12.94075815 20.60100524 13.75 23.1875 C14.30883499 24.93523539 14.86871953 26.68263556 15.4296875 28.4296875 C15.95927744 30.09084514 16.48795528 31.7522939 17.015625 33.4140625 C17.3905307 34.59375107 17.3905307 34.59375107 17.77301025 35.79727173 C19.5 41.32533729 19.5 41.32533729 19.5 43.5625 C21.27044678 43.49349487 21.27044678 43.49349487 23.07666016 43.4230957 C27.47071092 43.25607568 31.86525629 43.11014496 36.26025391 42.97045898 C38.15954176 42.90717097 40.05865006 42.83822375 41.95751953 42.76342773 C44.69275393 42.65668339 47.42799577 42.57055095 50.1640625 42.48828125 C51.00804596 42.45092361 51.85202942 42.41356598 52.72158813 42.37507629 C57.7599125 42.24762048 61.14271695 42.7144315 65.5 45.5625 C66.94430855 48.45111709 66.87688506 50.35897701 66.5 53.5625 C62.57357712 58.12271555 57.76619528 61.41750127 52.875 64.875 C51.27073442 66.02069484 49.66656763 67.16652803 48.0625 68.3125 C47.28519531 68.86550781 46.50789063 69.41851562 45.70703125 69.98828125 C42.74894319 72.09820955 39.81086661 74.23426393 36.875 76.375 C35.41669928 77.43754477 33.95837207 78.50005316 32.5 79.5625 C33.97717809 85.30826227 35.58737176 90.96749514 37.54296875 96.5703125 C38.06987305 98.08044922 38.06987305 98.08044922 38.60742188 99.62109375 C39.33122091 101.67600239 40.06308483 103.72808703 40.80273438 105.77734375 C42.94136759 111.9591444 44.20703997 117.01102869 43.5 123.5625 C41.33840803 126.40364651 40.59211422 126.54746298 36.88671875 127.15234375 C31.22080073 126.92343083 27.57947041 123.54888028 23.3125 120.125 C21.64699874 118.8409349 19.9803262 117.55838762 18.3125 116.27734375 C17.50039062 115.64554199 16.68828125 115.01374023 15.8515625 114.36279297 C12.58032376 111.85842062 9.21637257 109.50685034 5.8125 107.1875 C4.77738281 106.47851562 3.74226563 105.76953125 2.67578125 105.0390625 C1.95777344 104.55179687 1.23976563 104.06453125 0.5 103.5625 C-5.63385089 107.27477048 -11.48074324 111.21202094 -17.125 115.625 C-30.85997023 126.29364266 -30.85997023 126.29364266 -36.3125 127.1875 C-39.5 126.5625 -39.5 126.5625 -42 125.125 C-44.27563944 121.23744929 -43.37097597 117.80227134 -42.5 113.5625 C-40.73749629 107.51638548 -38.68610214 101.57019 -36.64208984 95.61450195 C-35.93765782 93.5517939 -35.24577781 91.48517748 -34.5546875 89.41796875 C-34.13687012 88.19746826 -33.71905273 86.97696777 -33.28857422 85.71948242 C-32.33793176 82.01218066 -32.33793176 82.01218066 -33.5 78.5625 C-35.07599281 76.97930806 -35.07599281 76.97930806 -37.11328125 75.64453125 C-37.86158203 75.11641846 -38.60988281 74.58830566 -39.38085938 74.04418945 C-40.18330078 73.49335693 -40.98574219 72.94252441 -41.8125 72.375 C-43.45502051 71.21959315 -45.09694572 70.06333957 -46.73828125 68.90625 C-47.5473291 68.34035156 -48.35637695 67.77445312 -49.18994141 67.19140625 C-52.33497771 64.97372688 -55.42559256 62.68920094 -58.5 60.375 C-59.428125 59.68019531 -60.35625 58.98539063 -61.3125 58.26953125 C-63.5 56.5625 -63.5 56.5625 -65.5 54.5625 C-66.05030095 47.62870808 -66.05030095 47.62870808 -64.5 44.625 C-59.20511155 41.81209051 -51.94863107 42.42289934 -46.0625 42.46484375 C-45.29695801 42.4662587 -44.53141602 42.46767365 -43.74267578 42.46913147 C-41.32840858 42.47467147 -38.91423856 42.48721221 -36.5 42.5 C-34.85026177 42.50502277 -33.20052206 42.50958431 -31.55078125 42.51367188 C-27.53381745 42.52462114 -23.51692513 42.54184334 -19.5 42.5625 C-19.15743164 41.46784424 -18.81486328 40.37318848 -18.46191406 39.24536133 C-17.18325983 35.16971468 -15.89017665 31.09876591 -14.59277344 27.02905273 C-14.03416127 25.2698775 -13.47942523 23.50946639 -12.92871094 21.74780273 C-12.13461596 19.20999559 -11.32650443 16.67701804 -10.515625 14.14453125 C-10.27378479 13.36100784 -10.03194458 12.57748444 -9.78277588 11.7702179 C-6.29619844 1.01188904 -6.29619844 1.01188904 0 0 Z M-0.5 33.5625 C-0.80236572 34.50101807 -0.80236572 34.50101807 -1.11083984 35.45849609 C-2.02595921 38.28690351 -2.95035418 41.11219333 -3.875 43.9375 C-4.19210938 44.92234375 -4.50921875 45.9071875 -4.8359375 46.921875 C-5.1453125 47.86289063 -5.4546875 48.80390625 -5.7734375 49.7734375 C-6.19761963 51.07740479 -6.19761963 51.07740479 -6.63037109 52.40771484 C-7.5 54.5625 -7.5 54.5625 -9.5 56.5625 C-12.11376953 56.88134766 -12.11376953 56.88134766 -15.3828125 56.9765625 C-16.54941406 57.01523438 -17.71601563 57.05390625 -18.91796875 57.09375 C-20.75294922 57.14015625 -20.75294922 57.14015625 -22.625 57.1875 C-23.85605469 57.22617188 -25.08710938 57.26484375 -26.35546875 57.3046875 C-29.40349376 57.3991999 -32.45150862 57.48475494 -35.5 57.5625 C-32.77138647 59.75554515 -30.03990241 61.93606045 -27.23828125 64.03515625 C-26.67689453 64.45990234 -26.11550781 64.88464844 -25.53710938 65.32226562 C-24.37802547 66.19781371 -23.21652078 67.07016539 -22.05273438 67.93945312 C-19.32328888 70.01256953 -17.42005422 71.68241868 -15.5 74.5625 C-15.62175144 80.89357484 -17.71490191 86.55914446 -19.85961914 92.45800781 C-20.45883621 94.14175826 -20.98530084 95.85102069 -21.5 97.5625 C-21.17 98.2225 -20.84 98.8825 -20.5 99.5625 C-19.17935547 98.53189453 -19.17935547 98.53189453 -17.83203125 97.48046875 C-16.65896515 96.57016946 -15.48578185 95.6600212 -14.3125 94.75 C-13.73435547 94.29818359 -13.15621094 93.84636719 -12.56054688 93.38085938 C-4.19919407 86.90907783 -4.19919407 86.90907783 0.2578125 86 C5.17443818 86.85300494 8.44359392 89.60395034 12.375 92.5625 C13.15875 93.13484375 13.9425 93.7071875 14.75 94.296875 C16.67632859 95.70638372 18.59208199 97.12822375 20.5 98.5625 C21.85900395 96.42400264 21.85900395 96.42400264 20.50390625 93.40234375 C19.7968517 91.45644997 19.07018326 89.51995203 18.32617188 87.58789062 C16.56849716 82.70874318 15.10670081 77.69760058 16.5 72.5625 C18.72110967 69.84500738 21.37935827 68.07903594 24.3125 66.1875 C25.77839514 65.1812174 27.24327704 64.17345681 28.70703125 63.1640625 C29.3616333 62.73432129 30.01623535 62.30458008 30.69067383 61.86181641 C32.49279092 60.567677 33.97917956 59.17298799 35.5 57.5625 C34.75838623 57.54791748 34.01677246 57.53333496 33.25268555 57.51831055 C29.89709369 57.44390543 26.54250506 57.34721994 23.1875 57.25 C22.02025391 57.22744141 20.85300781 57.20488281 19.65039062 57.18164062 C18.53212891 57.14619141 17.41386719 57.11074219 16.26171875 57.07421875 C15.23006592 57.04803467 14.19841309 57.02185059 13.13549805 56.99487305 C10.5 56.5625 10.5 56.5625 8.73583984 55.30639648 C7.30312857 53.28469427 6.65055165 51.52896157 5.96484375 49.1484375 C5.71283203 48.30539063 5.46082031 47.46234375 5.20117188 46.59375 C4.94916016 45.7171875 4.69714844 44.840625 4.4375 43.9375 C3.93279167 42.19326869 3.42141175 40.4509495 2.90234375 38.7109375 C2.68054443 37.93927246 2.45874512 37.16760742 2.23022461 36.37255859 C1.65152854 34.36236587 1.65152854 34.36236587 -0.5 33.5625 Z " fill="#000000" transform="translate(192.5,46.4375)"/>
<path d="M0 0 C1.80224533 -0.01908669 1.80224533 -0.01908669 3.64089966 -0.03855896 C4.95581894 -0.03203308 6.27073822 -0.0255072 7.62550354 -0.01878357 C9.02683928 -0.0258423 10.4281674 -0.03458712 11.82948303 -0.04489136 C15.63330442 -0.06740157 19.43671004 -0.06444191 23.24057269 -0.05556989 C26.41658036 -0.05046101 29.59250983 -0.05775177 32.76850945 -0.06504196 C40.26143763 -0.08204634 47.75416219 -0.07847004 55.24708557 -0.06175232 C62.97599295 -0.044831 70.70433555 -0.06066403 78.43318123 -0.0929752 C85.07027027 -0.11967051 91.7071835 -0.12694729 98.34432083 -0.11846012 C102.30780416 -0.11353056 106.27094767 -0.11574758 110.23438835 -0.13624763 C113.96188529 -0.15460413 117.68856997 -0.14864772 121.41602325 -0.12404823 C123.43441023 -0.11665335 125.45284041 -0.13389625 127.47116089 -0.15187073 C137.3343611 -0.0482364 137.3343611 -0.0482364 140.47183228 2.82754517 C142.12379456 5.5146637 142.12379456 5.5146637 142.18629456 9.1396637 C141.00078895 12.90538737 140.45827496 13.61174292 137.12379456 15.5146637 C134.40949249 15.89498043 134.40949249 15.89498043 131.24085999 15.90234375 C130.03791794 15.91224838 128.83497589 15.92215302 127.59558105 15.93235779 C126.27909073 15.92785614 124.9626004 15.92335449 123.60621643 15.91871643 C122.20326188 15.92441977 120.80031197 15.93138388 119.39736938 15.93951416 C115.58954101 15.95746367 111.78194284 15.95627405 107.97408485 15.95057178 C104.79550944 15.9474829 101.61697843 15.95356891 98.43840933 15.95961052 C90.94075932 15.97365963 83.44322324 15.97209091 75.9455719 15.96070862 C68.20877023 15.94922288 60.47231501 15.96330964 52.73555899 15.99010509 C46.09340773 16.01224876 39.45136534 16.01890263 32.80917978 16.01302868 C28.84185903 16.00965516 24.87476045 16.01210028 20.9074707 16.02927971 C17.17762164 16.04472607 13.44828675 16.04081965 9.71845818 16.02197456 C7.69630007 16.01652082 5.674119 16.03081969 3.65200806 16.04566956 C2.44906601 16.03583542 1.24612396 16.02600128 0.00672913 16.01586914 C-1.0389196 16.01565986 -2.08456833 16.01545057 -3.16190338 16.01523495 C-6.59869439 15.38142237 -7.78145983 14.2690459 -9.87620544 11.5146637 C-10.37620544 8.0146637 -10.37620544 8.0146637 -9.87620544 4.5146637 C-6.90280886 0.60743404 -4.822634 0.01296189 0 0 Z " fill="#000000" transform="translate(285.87620544433594,120.48533630371094)"/>
<path d="M0 0 C1.2113562 -0.01272446 2.4227124 -0.02544891 3.67077637 -0.03855896 C5.01001172 -0.03237677 6.34924517 -0.02577076 7.68847656 -0.01878357 C9.10128684 -0.02584216 10.51408955 -0.03458693 11.92687988 -0.04489136 C15.76162387 -0.06740104 19.59595545 -0.06444234 23.43074036 -0.05556989 C26.63169536 -0.05046176 29.83257274 -0.05775101 33.03351974 -0.06504196 C40.58393888 -0.08204558 48.13415594 -0.0784701 55.68457031 -0.06175232 C63.47597989 -0.04482414 71.26682951 -0.06067365 79.05817795 -0.0929752 C85.74705529 -0.11965627 92.43575816 -0.12695135 99.12468338 -0.11846012 C103.11999185 -0.11352725 107.11496323 -0.1157657 111.11022949 -0.13624763 C114.86644862 -0.15458227 118.62186094 -0.14867455 122.3780365 -0.12404823 C123.75670467 -0.1190334 125.13543408 -0.12254774 126.51405334 -0.13519669 C128.39538332 -0.15109301 130.27690864 -0.1331776 132.15820312 -0.11352539 C133.2112262 -0.11293908 134.26424927 -0.11235277 135.34918213 -0.1117487 C138.07910156 0.5146637 138.07910156 0.5146637 140.44915771 2.82736301 C142.07910156 5.5146637 142.07910156 5.5146637 142.07910156 9.1396637 C140.95456655 12.93496936 140.4231272 13.60878795 137.07910156 15.5146637 C134.38041687 15.88939381 134.38041687 15.88939381 131.23413086 15.8888855 C130.03960297 15.89589981 128.84507507 15.90291412 127.61434937 15.91014099 C126.30720978 15.90249725 125.00007019 15.89485352 123.65332031 15.88697815 C122.26022062 15.88940662 120.86712268 15.89312649 119.47402954 15.89804077 C115.69303359 15.90744587 111.91229668 15.89802767 108.13132095 15.88470864 C104.17470511 15.87339172 100.21810198 15.87750184 96.26147461 15.87945557 C89.61698169 15.88033847 82.97259081 15.86925903 76.328125 15.85084534 C68.64594353 15.82967775 60.96391154 15.82616786 53.28170681 15.8324073 C45.89201827 15.83810191 38.50238237 15.83245415 31.11270142 15.82123375 C27.96765164 15.81658904 24.82263407 15.81571336 21.67758179 15.8178196 C17.97411349 15.8197032 14.27079734 15.81159314 10.56736374 15.7957592 C8.55953683 15.78949248 6.55168684 15.79302378 4.54385376 15.79682922 C2.75206192 15.78620201 2.75206192 15.78620201 0.92407227 15.77536011 C-0.11420212 15.77330724 -1.1524765 15.77125437 -2.22221375 15.76913929 C-4.97913332 15.50917237 -6.61438648 15.02141647 -8.92089844 13.5146637 C-10.4667672 10.42292618 -10.21449365 7.92036817 -9.92089844 4.5146637 C-6.96020656 0.57587706 -4.829692 0.01287395 0 0 Z " fill="#000000" transform="translate(285.9208984375,157.48533630371094)"/>
<path d="M0 0 C1.7916861 -0.01908669 1.7916861 -0.01908669 3.61956787 -0.03855896 C5.57252777 -0.02877014 5.57252777 -0.02877014 7.56494141 -0.01878357 C8.95657261 -0.02584454 10.34819614 -0.03459031 11.73980713 -0.04489136 C15.5125798 -0.06737419 19.28493277 -0.06444864 23.05774689 -0.05556989 C26.20895162 -0.05045672 29.36007771 -0.0577551 32.51127434 -0.06504196 C39.94524904 -0.08203702 47.37901845 -0.07847869 54.81298828 -0.06175232 C62.48000204 -0.04482462 70.14644673 -0.0606749 77.81339836 -0.0929752 C84.3995529 -0.11967004 90.98553027 -0.12694764 97.57173347 -0.11846012 C101.50390379 -0.11353133 105.43573157 -0.11574373 109.36785889 -0.13624763 C113.06500271 -0.15460392 116.76132762 -0.14864805 120.45842743 -0.12404823 C122.46010609 -0.11665393 124.46182833 -0.13389552 126.46343994 -0.15187073 C136.24575892 -0.04823783 136.24575892 -0.04823783 139.38671875 2.82754517 C141.04150391 5.5146637 141.04150391 5.5146637 141.04150391 9.1396637 C139.73484887 13.54962444 139.73484887 13.54962444 137.04150391 15.5146637 C134.4346323 15.89498043 134.4346323 15.89498043 131.24085999 15.90234375 C129.42588768 15.9172007 129.42588768 15.9172007 127.57424927 15.93235779 C126.23138327 15.92811954 124.88851824 15.92356166 123.5456543 15.91871643 C122.13299519 15.92441798 120.72034069 15.9313814 119.30769348 15.93951416 C115.4688158 15.95748519 111.6301662 15.9562698 107.79125905 15.95057178 C104.58788063 15.94748544 101.38454637 15.9535662 98.18117422 15.95961052 C90.62457046 15.97366722 83.06807971 15.97208512 75.51147461 15.96070862 C67.71277871 15.94922717 59.91442669 15.96330071 52.11577612 15.99010509 C45.42269022 16.01224924 38.72971236 16.01890237 32.03659242 16.01302868 C28.0379583 16.00965467 24.0395446 16.01210333 20.04094124 16.02927971 C16.28073817 16.0447264 12.5210451 16.04081924 8.76086235 16.02197456 C7.38057936 16.01828222 6.00025879 16.02141601 4.62001038 16.03186035 C2.73642254 16.04502558 0.85270339 16.0311423 -1.03086853 16.01586914 C-2.61235137 16.01555521 -2.61235137 16.01555521 -4.22578335 16.01523495 C-7.6761014 15.38321461 -8.85518242 14.27846304 -10.95849609 11.5146637 C-11.52099609 8.0146637 -11.52099609 8.0146637 -10.95849609 4.5146637 C-7.40690685 0.92393632 -4.99617901 0.01353586 0 0 Z " fill="#000000" transform="translate(286.95849609375,83.48533630371094)"/>
<path d="M0 0 C1.28498383 -0.00637985 2.56996765 -0.0127597 3.89389038 -0.01933289 C5.29856326 -0.0208617 6.70323664 -0.02197559 8.10791016 -0.02270508 C9.54896071 -0.02591884 10.99001093 -0.02928301 12.43106079 -0.03279114 C15.45225785 -0.03877909 18.47342633 -0.0406314 21.49462891 -0.04003906 C25.36046491 -0.03993751 29.22611697 -0.05358407 33.09190941 -0.07081127 C36.06880531 -0.08194636 39.04565697 -0.0839578 42.02257156 -0.08342934 C43.44748188 -0.08460739 44.87239341 -0.08901939 46.29728317 -0.0967617 C48.29321669 -0.10659061 50.2892042 -0.10241182 52.28515625 -0.09765625 C53.4197226 -0.09908127 54.55428894 -0.10050629 55.72323608 -0.10197449 C58.82715553 0.14973874 60.99870227 0.75362153 63.77197266 2.14526367 C65.76640208 4.68362839 65.78319895 5.96190082 65.58447266 9.20776367 C64.71340684 12.35700162 64.37936471 13.28079755 61.77197266 15.14526367 C58.73596191 15.5262146 58.73596191 15.5262146 54.96142578 15.53344727 C53.92924171 15.5413327 53.92924171 15.5413327 52.87620544 15.54937744 C50.60164693 15.56258109 48.32778829 15.55383863 46.05322266 15.54370117 C44.47285833 15.54572182 42.89249492 15.54863318 41.31213379 15.55239868 C37.99999107 15.55682251 34.68809107 15.55038927 31.37597656 15.53637695 C27.12868176 15.51928481 22.88195564 15.52912571 18.6346817 15.54709435 C15.37131458 15.55793073 12.10808247 15.55448656 8.8447113 15.54671097 C7.27859937 15.54470855 5.71247522 15.54716972 4.14637756 15.55414963 C1.95809422 15.56176198 -0.22926596 15.55016427 -2.41748047 15.53344727 C-3.66307739 15.53106049 -4.90867432 15.52867371 -6.1920166 15.5262146 C-9.22802734 15.14526367 -9.22802734 15.14526367 -11.12878418 13.74209595 C-13.15547465 10.79799326 -12.76342781 7.56468798 -12.22802734 4.14526367 C-9.25419216 -0.2446835 -4.89763868 0.01647769 0 0 Z " fill="#000000" transform="translate(288.22802734375,46.854736328125)"/>
</svg>
